<svg width="985" height="629" viewBox="0 0 985 629" fill="none" xmlns="http://www.w3.org/2000/svg">
<rect x="324.5" y="203.998" width="660" height="425" fill="#58D1BD"/>
<g filter="url(#filter0_d)">
<rect x="24.5" y="14.998" width="820" height="540" rx="10" fill="white"/>
</g>
<path d="M24.5 24.998C24.5 19.4752 28.9772 14.998 34.5 14.998H834.5C840.023 14.998 844.5 19.4752 844.5 24.998V60.998H24.5V24.998Z" fill="#EEF0F1"/>
<circle cx="57" cy="38.498" r="5.5" fill="#A6A9AB"/>
<circle cx="77" cy="38.498" r="5.5" fill="#A6A9AB"/>
<circle cx="97" cy="38.498" r="5.5" fill="#A6A9AB"/>
<rect x="74.5" y="213.998" width="720" height="242" rx="8" fill="#EBEEFF"/>
<path d="M437.611 112.998L406.5 151.398H434.5L431.389 176.998L462.5 138.598H434.5L437.611 112.998Z" fill="#BACDF7"/>
<rect x="114.5" y="253.998" width="398" height="10" rx="5" fill="#BACDF7"/>
<rect x="127.5" y="297.998" width="239" height="8" rx="4" fill="#BACDF7"/>
<rect x="127.5" y="317.998" width="171" height="8" rx="4" fill="#BACDF7"/>
<rect x="127.5" y="337.998" width="279" height="8" rx="4" fill="#BACDF7"/>
<rect x="127.5" y="277.998" width="304" height="8" rx="4" fill="#BACDF7"/>
<rect x="114.5" y="297.998" width="8" height="8" rx="4" fill="#BACDF7"/>
<rect x="114.5" y="317.998" width="8" height="8" rx="4" fill="#BACDF7"/>
<rect x="114.5" y="337.998" width="8" height="8" rx="4" fill="#BACDF7"/>
<rect x="114.5" y="277.998" width="8" height="8" rx="4" fill="#BACDF7"/>
<rect x="361.5" y="391.998" width="146" height="32" rx="4" fill="#3770FF"/>
<rect x="74.5" y="102.998" width="135" height="20" rx="10" fill="#3770FF"/>
<circle cx="484" cy="378.498" r="3.5" fill="#3936AB"/>
<g filter="url(#filter1_d)">
<path fill-rule="evenodd" clip-rule="evenodd" d="M429.5 287.998C425.082 287.998 421.5 291.58 421.5 295.998V347.998C421.5 352.416 425.082 355.998 429.5 355.998H470.822L483.178 368.353L495.533 355.998H939.5C943.918 355.998 947.5 352.416 947.5 347.998V295.998C947.5 291.58 943.918 287.998 939.5 287.998H429.5Z" fill="#3936AB"/>
</g>
<mask id="mask0" mask-type="alpha" maskUnits="userSpaceOnUse" x="421" y="287" width="527" height="82">
<path d="M429.5 287.998C425.082 287.998 421.5 291.58 421.5 295.998V347.998C421.5 352.416 425.082 355.998 429.5 355.998H470.822L483.178 368.353L495.533 355.998H939.5C943.918 355.998 947.5 352.416 947.5 347.998V295.998C947.5 291.58 943.918 287.998 939.5 287.998H429.5Z" fill="#C4C4C4"/>
</mask>
<g mask="url(#mask0)">
<path d="M834.024 301.912L813.728 259.54C812.48 256.95 813.849 253.766 816.587 252.904C837.118 246.652 861.41 258.772 874.717 282.152C876.099 284.555 875.117 287.594 872.605 288.829L840.412 304.233C838.047 305.362 835.166 304.355 834.024 301.912Z" fill="#FFD74A"/>
<path d="M439.024 388.912L418.728 346.54C417.48 343.95 418.849 340.766 421.587 339.904C442.118 333.652 466.41 345.772 479.717 369.152C481.099 371.555 480.117 374.594 477.605 375.829L445.412 391.233C443.047 392.362 440.166 391.355 439.024 388.912Z" fill="#FFD74A"/>
</g>
<path d="M460.324 326.998H455.564L454.884 329.998H452.124L455.464 315.998H460.424L463.764 329.998H461.004L460.324 326.998ZM456.124 324.478H459.744L458.124 317.318H457.764L456.124 324.478ZM468.15 329.998H465.63V320.078H468.15V321.558H468.51C468.737 320.998 469.104 320.565 469.61 320.258C470.117 319.951 470.71 319.798 471.39 319.798C471.87 319.798 472.317 319.878 472.73 320.038C473.157 320.185 473.53 320.418 473.85 320.738C474.17 321.058 474.417 321.465 474.59 321.958C474.777 322.451 474.87 323.038 474.87 323.718V329.998H472.35V324.358C472.35 323.651 472.177 323.098 471.83 322.698C471.497 322.285 471.01 322.078 470.37 322.078C469.624 322.078 469.064 322.331 468.69 322.838C468.33 323.331 468.15 323.998 468.15 324.838V329.998ZM481.036 322.878C481.036 323.198 481.203 323.431 481.536 323.578C481.87 323.711 482.476 323.825 483.356 323.918C484.37 324.025 485.196 324.331 485.836 324.838C486.476 325.331 486.796 326.025 486.796 326.918V327.038C486.796 328.025 486.436 328.811 485.716 329.398C484.996 329.985 483.983 330.278 482.676 330.278C481.903 330.278 481.243 330.178 480.696 329.978C480.15 329.778 479.696 329.531 479.336 329.238C478.976 328.931 478.696 328.598 478.496 328.238C478.31 327.865 478.183 327.505 478.116 327.158L480.436 326.398C480.543 326.825 480.763 327.198 481.096 327.518C481.443 327.838 481.97 327.998 482.676 327.998C483.303 327.998 483.73 327.905 483.956 327.718C484.196 327.518 484.316 327.305 484.316 327.078C484.316 326.945 484.283 326.825 484.216 326.718C484.163 326.598 484.056 326.491 483.896 326.398C483.736 326.291 483.516 326.205 483.236 326.138C482.97 326.071 482.63 326.018 482.216 325.978C481.096 325.885 480.203 325.598 479.536 325.118C478.883 324.625 478.556 323.905 478.556 322.958V322.838C478.556 322.345 478.663 321.911 478.876 321.538C479.09 321.165 479.37 320.851 479.716 320.598C480.063 320.331 480.463 320.131 480.916 319.998C481.37 319.865 481.836 319.798 482.316 319.798C482.943 319.798 483.483 319.878 483.936 320.038C484.403 320.185 484.796 320.385 485.116 320.638C485.436 320.878 485.696 321.151 485.896 321.458C486.096 321.751 486.25 322.038 486.356 322.318L484.076 323.238C483.956 322.878 483.75 322.598 483.456 322.398C483.163 322.185 482.783 322.078 482.316 322.078C481.89 322.078 481.57 322.158 481.356 322.318C481.143 322.465 481.036 322.651 481.036 322.878ZM499.843 329.998H495.483L494.923 322.478V321.278H494.442V322.478L493.883 329.998H489.523L488.863 320.078H491.183L491.623 327.598V328.798H492.103V327.598L492.603 320.078H496.763L497.263 327.598V328.798H497.743V327.598L498.183 320.078H500.503L499.843 329.998ZM504.589 325.858C504.602 326.151 504.669 326.425 504.789 326.678C504.922 326.918 505.095 327.131 505.309 327.318C505.535 327.491 505.789 327.631 506.069 327.738C506.362 327.831 506.669 327.878 506.989 327.878C507.615 327.878 508.095 327.771 508.429 327.558C508.762 327.331 509.002 327.065 509.149 326.758L511.309 327.958C511.189 328.211 511.022 328.478 510.809 328.758C510.595 329.025 510.315 329.271 509.969 329.498C509.635 329.725 509.222 329.911 508.729 330.058C508.249 330.205 507.682 330.278 507.029 330.278C506.282 330.278 505.602 330.158 504.989 329.918C504.375 329.678 503.842 329.331 503.389 328.878C502.949 328.425 502.602 327.871 502.349 327.218C502.109 326.565 501.989 325.825 501.989 324.998V324.878C501.989 324.118 502.115 323.425 502.369 322.798C502.635 322.171 502.995 321.638 503.449 321.198C503.902 320.758 504.429 320.418 505.029 320.178C505.642 319.925 506.295 319.798 506.989 319.798C507.842 319.798 508.575 319.951 509.189 320.258C509.802 320.551 510.309 320.931 510.709 321.398C511.109 321.851 511.402 322.358 511.589 322.918C511.775 323.465 511.869 323.998 511.869 324.518V325.858H504.589ZM506.969 322.078C506.329 322.078 505.809 322.245 505.409 322.578C505.009 322.898 504.749 323.271 504.629 323.698H509.309C509.229 323.231 508.975 322.845 508.549 322.538C508.135 322.231 507.609 322.078 506.969 322.078ZM514.135 320.078H518.335V321.518H518.695C518.881 320.971 519.195 320.551 519.635 320.258C520.088 319.951 520.628 319.798 521.255 319.798C522.241 319.798 523.035 320.111 523.635 320.738C524.235 321.351 524.535 322.291 524.535 323.558V323.998L521.935 324.238V323.958C521.935 323.411 521.795 322.978 521.515 322.658C521.235 322.325 520.815 322.158 520.255 322.158C519.695 322.158 519.255 322.351 518.935 322.738C518.615 323.125 518.455 323.678 518.455 324.398V327.598H520.735V329.998H513.895V327.598H515.935V322.478H514.135V320.078ZM546.227 328.558H545.867C545.76 328.785 545.627 329.005 545.467 329.218C545.32 329.418 545.12 329.598 544.867 329.758C544.627 329.918 544.334 330.045 543.987 330.138C543.654 330.231 543.247 330.278 542.767 330.278C542.154 330.278 541.58 330.171 541.047 329.958C540.527 329.731 540.067 329.405 539.667 328.978C539.28 328.538 538.974 328.005 538.747 327.378C538.534 326.751 538.427 326.031 538.427 325.218V324.858C538.427 324.058 538.54 323.345 538.767 322.718C539.007 322.091 539.327 321.565 539.727 321.138C540.14 320.698 540.614 320.365 541.147 320.138C541.694 319.911 542.267 319.798 542.867 319.798C543.667 319.798 544.3 319.951 544.767 320.258C545.234 320.551 545.6 320.971 545.867 321.518H546.227V320.078H548.747V333.998H546.227V328.558ZM543.587 327.878C544.374 327.878 545.007 327.631 545.487 327.138C545.98 326.631 546.227 325.971 546.227 325.158V324.918C546.227 324.105 545.98 323.451 545.487 322.958C545.007 322.451 544.374 322.198 543.587 322.198C542.8 322.198 542.16 322.445 541.667 322.938C541.187 323.418 540.947 324.078 540.947 324.918V325.158C540.947 325.998 541.187 326.665 541.667 327.158C542.16 327.638 542.8 327.878 543.587 327.878ZM558.073 320.078H560.593V329.998H558.073V328.558H557.713C557.273 329.705 556.326 330.278 554.873 330.278C554.38 330.278 553.92 330.198 553.493 330.038C553.066 329.878 552.693 329.631 552.373 329.298C552.053 328.965 551.8 328.551 551.613 328.058C551.44 327.551 551.353 326.958 551.353 326.278V320.078H553.873V325.758C553.873 326.465 554.04 327.018 554.373 327.418C554.706 327.805 555.206 327.998 555.873 327.998C556.633 327.998 557.186 327.758 557.533 327.278C557.893 326.785 558.073 326.118 558.073 325.278V320.078ZM565.819 325.858C565.832 326.151 565.899 326.425 566.019 326.678C566.152 326.918 566.326 327.131 566.539 327.318C566.766 327.491 567.019 327.631 567.299 327.738C567.592 327.831 567.899 327.878 568.219 327.878C568.846 327.878 569.326 327.771 569.659 327.558C569.992 327.331 570.232 327.065 570.379 326.758L572.539 327.958C572.419 328.211 572.252 328.478 572.039 328.758C571.826 329.025 571.546 329.271 571.199 329.498C570.866 329.725 570.452 329.911 569.959 330.058C569.479 330.205 568.912 330.278 568.259 330.278C567.512 330.278 566.832 330.158 566.219 329.918C565.606 329.678 565.072 329.331 564.619 328.878C564.179 328.425 563.832 327.871 563.579 327.218C563.339 326.565 563.219 325.825 563.219 324.998V324.878C563.219 324.118 563.346 323.425 563.599 322.798C563.866 322.171 564.226 321.638 564.679 321.198C565.132 320.758 565.659 320.418 566.259 320.178C566.872 319.925 567.526 319.798 568.219 319.798C569.072 319.798 569.806 319.951 570.419 320.258C571.032 320.551 571.539 320.931 571.939 321.398C572.339 321.851 572.632 322.358 572.819 322.918C573.006 323.465 573.099 323.998 573.099 324.518V325.858H565.819ZM568.199 322.078C567.559 322.078 567.039 322.245 566.639 322.578C566.239 322.898 565.979 323.271 565.859 323.698H570.539C570.459 323.231 570.206 322.845 569.779 322.538C569.366 322.231 568.839 322.078 568.199 322.078ZM579.005 322.878C579.005 323.198 579.172 323.431 579.505 323.578C579.838 323.711 580.445 323.825 581.325 323.918C582.338 324.025 583.165 324.331 583.805 324.838C584.445 325.331 584.765 326.025 584.765 326.918V327.038C584.765 328.025 584.405 328.811 583.685 329.398C582.965 329.985 581.952 330.278 580.645 330.278C579.872 330.278 579.212 330.178 578.665 329.978C578.118 329.778 577.665 329.531 577.305 329.238C576.945 328.931 576.665 328.598 576.465 328.238C576.278 327.865 576.152 327.505 576.085 327.158L578.405 326.398C578.512 326.825 578.732 327.198 579.065 327.518C579.412 327.838 579.938 327.998 580.645 327.998C581.272 327.998 581.698 327.905 581.925 327.718C582.165 327.518 582.285 327.305 582.285 327.078C582.285 326.945 582.252 326.825 582.185 326.718C582.132 326.598 582.025 326.491 581.865 326.398C581.705 326.291 581.485 326.205 581.205 326.138C580.938 326.071 580.598 326.018 580.185 325.978C579.065 325.885 578.172 325.598 577.505 325.118C576.852 324.625 576.525 323.905 576.525 322.958V322.838C576.525 322.345 576.632 321.911 576.845 321.538C577.058 321.165 577.338 320.851 577.685 320.598C578.032 320.331 578.432 320.131 578.885 319.998C579.338 319.865 579.805 319.798 580.285 319.798C580.912 319.798 581.452 319.878 581.905 320.038C582.372 320.185 582.765 320.385 583.085 320.638C583.405 320.878 583.665 321.151 583.865 321.458C584.065 321.751 584.218 322.038 584.325 322.318L582.045 323.238C581.925 322.878 581.718 322.598 581.425 322.398C581.132 322.185 580.752 322.078 580.285 322.078C579.858 322.078 579.538 322.158 579.325 322.318C579.112 322.465 579.005 322.651 579.005 322.878ZM587.811 320.078H590.751V315.998H593.271V320.078H596.851V322.478H593.271V326.998C593.271 327.398 593.451 327.598 593.811 327.598H596.491V329.998H592.291C591.838 329.998 591.465 329.851 591.171 329.558C590.891 329.265 590.751 328.891 590.751 328.438V322.478H587.811V320.078ZM600.517 327.598H603.877V322.478H600.757V320.078H606.397V327.598H609.277V329.998H600.517V327.598ZM607.017 317.138C607.017 317.405 606.964 317.658 606.857 317.898C606.764 318.125 606.631 318.325 606.457 318.498C606.284 318.658 606.077 318.791 605.837 318.898C605.611 318.991 605.371 319.038 605.117 319.038C604.851 319.038 604.604 318.991 604.377 318.898C604.151 318.791 603.951 318.658 603.777 318.498C603.604 318.325 603.464 318.125 603.357 317.898C603.264 317.658 603.217 317.405 603.217 317.138C603.217 316.871 603.264 316.625 603.357 316.398C603.464 316.158 603.604 315.958 603.777 315.798C603.951 315.625 604.151 315.491 604.377 315.398C604.604 315.291 604.851 315.238 605.117 315.238C605.371 315.238 605.611 315.291 605.837 315.398C606.077 315.491 606.284 315.625 606.457 315.798C606.631 315.958 606.764 316.158 606.857 316.398C606.964 316.625 607.017 316.871 607.017 317.138ZM622.303 325.158C622.303 325.985 622.163 326.718 621.883 327.358C621.603 327.985 621.223 328.518 620.743 328.958C620.263 329.385 619.71 329.711 619.083 329.938C618.47 330.165 617.823 330.278 617.143 330.278C616.463 330.278 615.81 330.165 615.183 329.938C614.57 329.711 614.023 329.385 613.543 328.958C613.063 328.518 612.683 327.985 612.403 327.358C612.123 326.718 611.983 325.985 611.983 325.158V324.918C611.983 324.105 612.123 323.385 612.403 322.758C612.683 322.118 613.063 321.578 613.543 321.138C614.023 320.698 614.57 320.365 615.183 320.138C615.81 319.911 616.463 319.798 617.143 319.798C617.823 319.798 618.47 319.911 619.083 320.138C619.71 320.365 620.263 320.698 620.743 321.138C621.223 321.578 621.603 322.118 621.883 322.758C622.163 323.385 622.303 324.105 622.303 324.918V325.158ZM617.143 327.878C617.503 327.878 617.843 327.818 618.163 327.698C618.483 327.578 618.763 327.405 619.003 327.178C619.243 326.951 619.43 326.678 619.563 326.358C619.71 326.025 619.783 325.651 619.783 325.238V324.838C619.783 324.425 619.71 324.058 619.563 323.738C619.43 323.405 619.243 323.125 619.003 322.898C618.763 322.671 618.483 322.498 618.163 322.378C617.843 322.258 617.503 322.198 617.143 322.198C616.783 322.198 616.443 322.258 616.123 322.378C615.803 322.498 615.523 322.671 615.283 322.898C615.043 323.125 614.85 323.405 614.703 323.738C614.57 324.058 614.503 324.425 614.503 324.838V325.238C614.503 325.651 614.57 326.025 614.703 326.358C614.85 326.678 615.043 326.951 615.283 327.178C615.523 327.405 615.803 327.578 616.123 327.698C616.443 327.818 616.783 327.878 617.143 327.878ZM627.35 329.998H624.83V320.078H627.35V321.558H627.71C627.936 320.998 628.303 320.565 628.81 320.258C629.316 319.951 629.91 319.798 630.59 319.798C631.07 319.798 631.516 319.878 631.93 320.038C632.356 320.185 632.73 320.418 633.05 320.738C633.37 321.058 633.616 321.465 633.79 321.958C633.976 322.451 634.07 323.038 634.07 323.718V329.998H631.55V324.358C631.55 323.651 631.376 323.098 631.03 322.698C630.696 322.285 630.21 322.078 629.57 322.078C628.823 322.078 628.263 322.331 627.89 322.838C627.53 323.331 627.35 323.998 627.35 324.838V329.998ZM640.236 322.878C640.236 323.198 640.402 323.431 640.736 323.578C641.069 323.711 641.676 323.825 642.556 323.918C643.569 324.025 644.396 324.331 645.036 324.838C645.676 325.331 645.996 326.025 645.996 326.918V327.038C645.996 328.025 645.636 328.811 644.916 329.398C644.196 329.985 643.182 330.278 641.876 330.278C641.102 330.278 640.442 330.178 639.896 329.978C639.349 329.778 638.896 329.531 638.536 329.238C638.176 328.931 637.896 328.598 637.696 328.238C637.509 327.865 637.382 327.505 637.316 327.158L639.636 326.398C639.742 326.825 639.962 327.198 640.296 327.518C640.642 327.838 641.169 327.998 641.876 327.998C642.502 327.998 642.929 327.905 643.156 327.718C643.396 327.518 643.516 327.305 643.516 327.078C643.516 326.945 643.482 326.825 643.416 326.718C643.362 326.598 643.256 326.491 643.096 326.398C642.936 326.291 642.716 326.205 642.436 326.138C642.169 326.071 641.829 326.018 641.416 325.978C640.296 325.885 639.402 325.598 638.736 325.118C638.082 324.625 637.756 323.905 637.756 322.958V322.838C637.756 322.345 637.862 321.911 638.076 321.538C638.289 321.165 638.569 320.851 638.916 320.598C639.262 320.331 639.662 320.131 640.116 319.998C640.569 319.865 641.036 319.798 641.516 319.798C642.142 319.798 642.682 319.878 643.136 320.038C643.602 320.185 643.996 320.385 644.316 320.638C644.636 320.878 644.896 321.151 645.096 321.458C645.296 321.751 645.449 322.038 645.556 322.318L643.276 323.238C643.156 322.878 642.949 322.598 642.656 322.398C642.362 322.185 641.982 322.078 641.516 322.078C641.089 322.078 640.769 322.158 640.556 322.318C640.342 322.465 640.236 322.651 640.236 322.878ZM663.568 333.998H661.048V320.078H663.568V321.518H663.928C664.194 320.971 664.581 320.551 665.088 320.258C665.594 319.951 666.241 319.798 667.028 319.798C667.614 319.798 668.168 319.911 668.688 320.138C669.221 320.365 669.681 320.698 670.068 321.138C670.468 321.565 670.781 322.091 671.008 322.718C671.248 323.345 671.368 324.058 671.368 324.858V325.218C671.368 326.031 671.254 326.751 671.028 327.378C670.801 328.005 670.494 328.538 670.108 328.978C669.721 329.405 669.261 329.731 668.728 329.958C668.208 330.171 667.641 330.278 667.028 330.278C666.574 330.278 666.181 330.231 665.848 330.138C665.514 330.045 665.221 329.918 664.968 329.758C664.728 329.598 664.521 329.418 664.348 329.218C664.188 329.005 664.048 328.785 663.928 328.558H663.568V333.998ZM666.208 327.878C666.994 327.878 667.628 327.638 668.108 327.158C668.601 326.665 668.848 325.998 668.848 325.158V324.918C668.848 324.078 668.601 323.418 668.108 322.938C667.628 322.445 666.994 322.198 666.208 322.198C665.421 322.198 664.781 322.451 664.288 322.958C663.808 323.451 663.568 324.105 663.568 324.918V325.158C663.568 325.971 663.808 326.631 664.288 327.138C664.781 327.631 665.421 327.878 666.208 327.878ZM673.334 320.078H677.534V321.518H677.894C678.081 320.971 678.394 320.551 678.834 320.258C679.287 319.951 679.827 319.798 680.454 319.798C681.441 319.798 682.234 320.111 682.834 320.738C683.434 321.351 683.734 322.291 683.734 323.558V323.998L681.134 324.238V323.958C681.134 323.411 680.994 322.978 680.714 322.658C680.434 322.325 680.014 322.158 679.454 322.158C678.894 322.158 678.454 322.351 678.134 322.738C677.814 323.125 677.654 323.678 677.654 324.398V327.598H679.934V329.998H673.094V327.598H675.134V322.478H673.334V320.078ZM688.28 325.858C688.293 326.151 688.36 326.425 688.48 326.678C688.613 326.918 688.787 327.131 689 327.318C689.227 327.491 689.48 327.631 689.76 327.738C690.053 327.831 690.36 327.878 690.68 327.878C691.307 327.878 691.787 327.771 692.12 327.558C692.453 327.331 692.693 327.065 692.84 326.758L695 327.958C694.88 328.211 694.713 328.478 694.5 328.758C694.287 329.025 694.007 329.271 693.66 329.498C693.327 329.725 692.913 329.911 692.42 330.058C691.94 330.205 691.373 330.278 690.72 330.278C689.973 330.278 689.293 330.158 688.68 329.918C688.067 329.678 687.533 329.331 687.08 328.878C686.64 328.425 686.293 327.871 686.04 327.218C685.8 326.565 685.68 325.825 685.68 324.998V324.878C685.68 324.118 685.807 323.425 686.06 322.798C686.327 322.171 686.687 321.638 687.14 321.198C687.593 320.758 688.12 320.418 688.72 320.178C689.333 319.925 689.987 319.798 690.68 319.798C691.533 319.798 692.267 319.951 692.88 320.258C693.493 320.551 694 320.931 694.4 321.398C694.8 321.851 695.093 322.358 695.28 322.918C695.467 323.465 695.56 323.998 695.56 324.518V325.858H688.28ZM690.66 322.078C690.02 322.078 689.5 322.245 689.1 322.578C688.7 322.898 688.44 323.271 688.32 323.698H693C692.92 323.231 692.667 322.845 692.24 322.538C691.827 322.231 691.3 322.078 690.66 322.078ZM700.306 333.998H697.786V320.078H700.306V321.518H700.666C700.933 320.971 701.319 320.551 701.826 320.258C702.333 319.951 702.979 319.798 703.766 319.798C704.353 319.798 704.906 319.911 705.426 320.138C705.959 320.365 706.419 320.698 706.806 321.138C707.206 321.565 707.519 322.091 707.746 322.718C707.986 323.345 708.106 324.058 708.106 324.858V325.218C708.106 326.031 707.993 326.751 707.766 327.378C707.539 328.005 707.233 328.538 706.846 328.978C706.459 329.405 705.999 329.731 705.466 329.958C704.946 330.171 704.379 330.278 703.766 330.278C703.313 330.278 702.919 330.231 702.586 330.138C702.253 330.045 701.959 329.918 701.706 329.758C701.466 329.598 701.259 329.418 701.086 329.218C700.926 329.005 700.786 328.785 700.666 328.558H700.306V333.998ZM702.946 327.878C703.733 327.878 704.366 327.638 704.846 327.158C705.339 326.665 705.586 325.998 705.586 325.158V324.918C705.586 324.078 705.339 323.418 704.846 322.938C704.366 322.445 703.733 322.198 702.946 322.198C702.159 322.198 701.519 322.451 701.026 322.958C700.546 323.451 700.306 324.105 700.306 324.918V325.158C700.306 325.971 700.546 326.631 701.026 327.138C701.519 327.631 702.159 327.878 702.946 327.878ZM716.972 328.558C716.706 329.185 716.332 329.631 715.852 329.898C715.372 330.151 714.812 330.278 714.172 330.278C713.572 330.278 713.006 330.165 712.472 329.938C711.952 329.711 711.492 329.378 711.092 328.938C710.692 328.498 710.372 327.965 710.132 327.338C709.906 326.711 709.792 325.998 709.792 325.198V324.878C709.792 324.091 709.906 323.385 710.132 322.758C710.359 322.131 710.666 321.598 711.052 321.158C711.439 320.718 711.886 320.385 712.392 320.158C712.912 319.918 713.466 319.798 714.052 319.798C714.759 319.798 715.326 319.918 715.752 320.158C716.192 320.398 716.539 320.771 716.792 321.278H717.152V320.078H719.672V326.998C719.672 327.398 719.852 327.598 720.212 327.598H720.592V329.998H718.872C718.419 329.998 718.046 329.865 717.752 329.598C717.472 329.331 717.332 328.985 717.332 328.558H716.972ZM714.732 327.878C715.466 327.878 716.052 327.638 716.492 327.158C716.932 326.665 717.152 325.998 717.152 325.158V324.918C717.152 324.078 716.932 323.418 716.492 322.938C716.052 322.445 715.466 322.198 714.732 322.198C713.999 322.198 713.412 322.445 712.972 322.938C712.532 323.418 712.312 324.078 712.312 324.918V325.158C712.312 325.998 712.532 326.665 712.972 327.158C713.412 327.638 713.999 327.878 714.732 327.878ZM722.318 320.078H726.518V321.518H726.878C727.065 320.971 727.378 320.551 727.818 320.258C728.272 319.951 728.812 319.798 729.438 319.798C730.425 319.798 731.218 320.111 731.818 320.738C732.418 321.351 732.718 322.291 732.718 323.558V323.998L730.118 324.238V323.958C730.118 323.411 729.978 322.978 729.698 322.658C729.418 322.325 728.998 322.158 728.438 322.158C727.878 322.158 727.438 322.351 727.118 322.738C726.798 323.125 726.638 323.678 726.638 324.398V327.598H728.918V329.998H722.078V327.598H724.118V322.478H722.318V320.078ZM737.264 325.858C737.278 326.151 737.344 326.425 737.464 326.678C737.598 326.918 737.771 327.131 737.984 327.318C738.211 327.491 738.464 327.631 738.744 327.738C739.038 327.831 739.344 327.878 739.664 327.878C740.291 327.878 740.771 327.771 741.104 327.558C741.438 327.331 741.678 327.065 741.824 326.758L743.984 327.958C743.864 328.211 743.698 328.478 743.484 328.758C743.271 329.025 742.991 329.271 742.644 329.498C742.311 329.725 741.898 329.911 741.404 330.058C740.924 330.205 740.358 330.278 739.704 330.278C738.958 330.278 738.278 330.158 737.664 329.918C737.051 329.678 736.518 329.331 736.064 328.878C735.624 328.425 735.278 327.871 735.024 327.218C734.784 326.565 734.664 325.825 734.664 324.998V324.878C734.664 324.118 734.791 323.425 735.044 322.798C735.311 322.171 735.671 321.638 736.124 321.198C736.578 320.758 737.104 320.418 737.704 320.178C738.318 319.925 738.971 319.798 739.664 319.798C740.518 319.798 741.251 319.951 741.864 320.258C742.478 320.551 742.984 320.931 743.384 321.398C743.784 321.851 744.078 322.358 744.264 322.918C744.451 323.465 744.544 323.998 744.544 324.518V325.858H737.264ZM739.644 322.078C739.004 322.078 738.484 322.245 738.084 322.578C737.684 322.898 737.424 323.271 737.304 323.698H741.984C741.904 323.231 741.651 322.845 741.224 322.538C740.811 322.231 740.284 322.078 739.644 322.078ZM754.41 328.558H754.05C753.944 328.785 753.81 329.005 753.65 329.218C753.504 329.418 753.304 329.598 753.05 329.758C752.81 329.918 752.517 330.045 752.17 330.138C751.837 330.231 751.43 330.278 750.95 330.278C750.337 330.278 749.764 330.171 749.23 329.958C748.71 329.731 748.25 329.405 747.85 328.978C747.464 328.538 747.157 328.005 746.93 327.378C746.717 326.751 746.61 326.031 746.61 325.218V324.858C746.61 324.058 746.724 323.345 746.95 322.718C747.19 322.091 747.51 321.565 747.91 321.138C748.324 320.698 748.797 320.365 749.33 320.138C749.877 319.911 750.45 319.798 751.05 319.798C751.85 319.798 752.484 319.951 752.95 320.258C753.417 320.551 753.784 320.971 754.05 321.518H754.41V315.998H756.93V329.998H754.41V328.558ZM751.77 327.878C752.557 327.878 753.19 327.631 753.67 327.138C754.164 326.631 754.41 325.971 754.41 325.158V324.918C754.41 324.105 754.164 323.451 753.67 322.958C753.19 322.451 752.557 322.198 751.77 322.198C750.984 322.198 750.344 322.445 749.85 322.938C749.37 323.418 749.13 324.078 749.13 324.918V325.158C749.13 325.998 749.37 326.665 749.85 327.158C750.344 327.638 750.984 327.878 751.77 327.878ZM773.883 329.998H771.363V315.998H773.883V321.518H774.243C774.509 320.971 774.896 320.551 775.403 320.258C775.909 319.951 776.556 319.798 777.343 319.798C777.929 319.798 778.483 319.911 779.003 320.138C779.536 320.365 779.996 320.698 780.383 321.138C780.783 321.565 781.096 322.091 781.323 322.718C781.563 323.345 781.683 324.058 781.683 324.858V325.218C781.683 326.031 781.569 326.751 781.343 327.378C781.116 328.005 780.809 328.538 780.423 328.978C780.036 329.405 779.576 329.731 779.043 329.958C778.523 330.171 777.956 330.278 777.343 330.278C776.889 330.278 776.496 330.231 776.163 330.138C775.829 330.045 775.536 329.918 775.283 329.758C775.043 329.598 774.836 329.418 774.663 329.218C774.503 329.005 774.363 328.785 774.243 328.558H773.883V329.998ZM776.523 327.878C777.309 327.878 777.943 327.638 778.423 327.158C778.916 326.665 779.163 325.998 779.163 325.158V324.918C779.163 324.078 778.916 323.418 778.423 322.938C777.943 322.445 777.309 322.198 776.523 322.198C775.736 322.198 775.096 322.451 774.603 322.958C774.123 323.451 773.883 324.105 773.883 324.918V325.158C773.883 325.971 774.123 326.631 774.603 327.138C775.096 327.631 775.736 327.878 776.523 327.878ZM790.749 320.078H793.269V332.438C793.269 332.891 793.122 333.265 792.829 333.558C792.549 333.851 792.182 333.998 791.729 333.998H785.829V331.598H790.209C790.569 331.598 790.749 331.398 790.749 330.998V328.558H790.389C789.949 329.705 789.002 330.278 787.549 330.278C787.055 330.278 786.595 330.198 786.169 330.038C785.742 329.878 785.369 329.631 785.049 329.298C784.729 328.965 784.475 328.551 784.289 328.058C784.115 327.551 784.029 326.958 784.029 326.278V320.078H786.549V325.758C786.549 326.465 786.715 327.018 787.049 327.418C787.382 327.805 787.882 327.998 788.549 327.998C789.309 327.998 789.862 327.758 790.209 327.278C790.569 326.785 790.749 326.118 790.749 325.278V320.078ZM818.241 325.158C818.241 325.985 818.101 326.718 817.821 327.358C817.541 327.985 817.161 328.518 816.681 328.958C816.201 329.385 815.648 329.711 815.021 329.938C814.408 330.165 813.761 330.278 813.081 330.278C812.401 330.278 811.748 330.165 811.121 329.938C810.508 329.711 809.961 329.385 809.481 328.958C809.001 328.518 808.621 327.985 808.341 327.358C808.061 326.718 807.921 325.985 807.921 325.158V324.918C807.921 324.105 808.061 323.385 808.341 322.758C808.621 322.118 809.001 321.578 809.481 321.138C809.961 320.698 810.508 320.365 811.121 320.138C811.748 319.911 812.401 319.798 813.081 319.798C813.761 319.798 814.408 319.911 815.021 320.138C815.648 320.365 816.201 320.698 816.681 321.138C817.161 321.578 817.541 322.118 817.821 322.758C818.101 323.385 818.241 324.105 818.241 324.918V325.158ZM813.081 327.878C813.441 327.878 813.781 327.818 814.101 327.698C814.421 327.578 814.701 327.405 814.941 327.178C815.181 326.951 815.368 326.678 815.501 326.358C815.648 326.025 815.721 325.651 815.721 325.238V324.838C815.721 324.425 815.648 324.058 815.501 323.738C815.368 323.405 815.181 323.125 814.941 322.898C814.701 322.671 814.421 322.498 814.101 322.378C813.781 322.258 813.441 322.198 813.081 322.198C812.721 322.198 812.381 322.258 812.061 322.378C811.741 322.498 811.461 322.671 811.221 322.898C810.981 323.125 810.788 323.405 810.641 323.738C810.508 324.058 810.441 324.425 810.441 324.838V325.238C810.441 325.651 810.508 326.025 810.641 326.358C810.788 326.678 810.981 326.951 811.221 327.178C811.461 327.405 811.741 327.578 812.061 327.698C812.381 327.818 812.721 327.878 813.081 327.878ZM827.487 320.078H830.007V329.998H827.487V328.558H827.127C826.687 329.705 825.74 330.278 824.287 330.278C823.794 330.278 823.334 330.198 822.907 330.038C822.48 329.878 822.107 329.631 821.787 329.298C821.467 328.965 821.214 328.551 821.027 328.058C820.854 327.551 820.767 326.958 820.767 326.278V320.078H823.287V325.758C823.287 326.465 823.454 327.018 823.787 327.418C824.12 327.805 824.62 327.998 825.287 327.998C826.047 327.998 826.6 327.758 826.947 327.278C827.307 326.785 827.487 326.118 827.487 325.278V320.078ZM832.533 320.078H836.733V321.518H837.093C837.28 320.971 837.593 320.551 838.033 320.258C838.486 319.951 839.026 319.798 839.653 319.798C840.64 319.798 841.433 320.111 842.033 320.738C842.633 321.351 842.933 322.291 842.933 323.558V323.998L840.333 324.238V323.958C840.333 323.411 840.193 322.978 839.913 322.658C839.633 322.325 839.213 322.158 838.653 322.158C838.093 322.158 837.653 322.351 837.333 322.738C837.013 323.125 836.853 323.678 836.853 324.398V327.598H839.133V329.998H832.293V327.598H834.333V322.478H832.533V320.078ZM857.225 320.078H860.165V315.998H862.685V320.078H866.265V322.478H862.685V326.998C862.685 327.398 862.865 327.598 863.225 327.598H865.905V329.998H861.705C861.252 329.998 860.879 329.851 860.585 329.558C860.305 329.265 860.165 328.891 860.165 328.438V322.478H857.225V320.078ZM871.971 325.858C871.985 326.151 872.051 326.425 872.171 326.678C872.305 326.918 872.478 327.131 872.691 327.318C872.918 327.491 873.171 327.631 873.451 327.738C873.745 327.831 874.051 327.878 874.371 327.878C874.998 327.878 875.478 327.771 875.811 327.558C876.145 327.331 876.385 327.065 876.531 326.758L878.691 327.958C878.571 328.211 878.405 328.478 878.191 328.758C877.978 329.025 877.698 329.271 877.351 329.498C877.018 329.725 876.605 329.911 876.111 330.058C875.631 330.205 875.065 330.278 874.411 330.278C873.665 330.278 872.985 330.158 872.371 329.918C871.758 329.678 871.225 329.331 870.771 328.878C870.331 328.425 869.985 327.871 869.731 327.218C869.491 326.565 869.371 325.825 869.371 324.998V324.878C869.371 324.118 869.498 323.425 869.751 322.798C870.018 322.171 870.378 321.638 870.831 321.198C871.285 320.758 871.811 320.418 872.411 320.178C873.025 319.925 873.678 319.798 874.371 319.798C875.225 319.798 875.958 319.951 876.571 320.258C877.185 320.551 877.691 320.931 878.091 321.398C878.491 321.851 878.785 322.358 878.971 322.918C879.158 323.465 879.251 323.998 879.251 324.518V325.858H871.971ZM874.351 322.078C873.711 322.078 873.191 322.245 872.791 322.578C872.391 322.898 872.131 323.271 872.011 323.698H876.691C876.611 323.231 876.358 322.845 875.931 322.538C875.518 322.231 874.991 322.078 874.351 322.078ZM888.418 328.558C888.151 329.185 887.778 329.631 887.298 329.898C886.818 330.151 886.258 330.278 885.618 330.278C885.018 330.278 884.451 330.165 883.918 329.938C883.398 329.711 882.938 329.378 882.538 328.938C882.138 328.498 881.818 327.965 881.578 327.338C881.351 326.711 881.238 325.998 881.238 325.198V324.878C881.238 324.091 881.351 323.385 881.578 322.758C881.804 322.131 882.111 321.598 882.498 321.158C882.884 320.718 883.331 320.385 883.838 320.158C884.358 319.918 884.911 319.798 885.498 319.798C886.204 319.798 886.771 319.918 887.198 320.158C887.638 320.398 887.984 320.771 888.238 321.278H888.598V320.078H891.118V326.998C891.118 327.398 891.298 327.598 891.658 327.598H892.038V329.998H890.318C889.864 329.998 889.491 329.865 889.198 329.598C888.918 329.331 888.778 328.985 888.778 328.558H888.418ZM886.178 327.878C886.911 327.878 887.498 327.638 887.938 327.158C888.378 326.665 888.598 325.998 888.598 325.158V324.918C888.598 324.078 888.378 323.418 887.938 322.938C887.498 322.445 886.911 322.198 886.178 322.198C885.444 322.198 884.858 322.445 884.418 322.938C883.978 323.418 883.758 324.078 883.758 324.918V325.158C883.758 325.998 883.978 326.665 884.418 327.158C884.858 327.638 885.444 327.878 886.178 327.878ZM904.204 329.998H901.684V323.038C901.684 322.758 901.61 322.551 901.464 322.418C901.33 322.271 901.15 322.198 900.924 322.198C900.657 322.198 900.444 322.278 900.284 322.438C900.137 322.598 900.064 322.838 900.064 323.158V329.998H897.544V323.038C897.544 322.758 897.464 322.551 897.304 322.418C897.157 322.271 896.977 322.198 896.764 322.198C896.524 322.198 896.324 322.278 896.164 322.438C896.004 322.598 895.924 322.838 895.924 323.158V329.998H893.404V320.078H895.924V321.038H896.284C896.364 320.678 896.544 320.385 896.824 320.158C897.117 319.918 897.497 319.798 897.964 319.798C898.404 319.798 898.777 319.918 899.084 320.158C899.39 320.385 899.597 320.678 899.704 321.038H900.064C900.17 320.678 900.39 320.385 900.724 320.158C901.07 319.918 901.497 319.798 902.004 319.798C902.67 319.798 903.204 320.025 903.604 320.478C904.004 320.918 904.204 321.531 904.204 322.318V329.998ZM912.95 328.378C912.95 328.645 912.896 328.898 912.79 329.138C912.696 329.365 912.563 329.565 912.39 329.738C912.216 329.898 912.01 330.025 911.77 330.118C911.543 330.225 911.303 330.278 911.05 330.278C910.783 330.278 910.536 330.225 910.31 330.118C910.083 330.025 909.883 329.898 909.71 329.738C909.536 329.565 909.396 329.365 909.29 329.138C909.196 328.898 909.15 328.645 909.15 328.378C909.15 328.111 909.196 327.865 909.29 327.638C909.396 327.398 909.536 327.198 909.71 327.038C909.883 326.865 910.083 326.731 910.31 326.638C910.536 326.531 910.783 326.478 911.05 326.478C911.303 326.478 911.543 326.531 911.77 326.638C912.01 326.731 912.216 326.865 912.39 327.038C912.563 327.198 912.696 327.398 912.79 327.638C912.896 327.865 912.95 328.111 912.95 328.378Z" fill="white"/>
<defs>
<filter id="filter0_d" x="0.5" y="0.998047" width="868" height="588" filterUnits="userSpaceOnUse" color-interpolation-filters="sRGB">
<feFlood flood-opacity="0" result="BackgroundImageFix"/>
<feColorMatrix in="SourceAlpha" type="matrix" values="0 0 0 0 0 0 0 0 0 0 0 0 0 0 0 0 0 0 127 0"/>
<feOffset dy="10"/>
<feGaussianBlur stdDeviation="12"/>
<feColorMatrix type="matrix" values="0 0 0 0 0 0 0 0 0 0 0 0 0 0 0 0 0 0 0.1 0"/>
<feBlend mode="normal" in2="BackgroundImageFix" result="effect1_dropShadow"/>
<feBlend mode="normal" in="SourceGraphic" in2="effect1_dropShadow" result="shape"/>
</filter>
<filter id="filter1_d" x="408.5" y="280.998" width="552" height="106.355" filterUnits="userSpaceOnUse" color-interpolation-filters="sRGB">
<feFlood flood-opacity="0" result="BackgroundImageFix"/>
<feColorMatrix in="SourceAlpha" type="matrix" values="0 0 0 0 0 0 0 0 0 0 0 0 0 0 0 0 0 0 127 0"/>
<feOffset dy="6"/>
<feGaussianBlur stdDeviation="6.5"/>
<feColorMatrix type="matrix" values="0 0 0 0 0 0 0 0 0 0 0 0 0 0 0 0 0 0 0.12 0"/>
<feBlend mode="normal" in2="BackgroundImageFix" result="effect1_dropShadow"/>
<feBlend mode="normal" in="SourceGraphic" in2="effect1_dropShadow" result="shape"/>
</filter>
</defs>
</svg>
