<svg width="1036" height="685" viewBox="0 0 1036 685" fill="none" xmlns="http://www.w3.org/2000/svg">
<path d="M170.944 114.982L98.4029 78.2716C93.9583 76.0361 92.352 70.2987 95.0641 66.3104C115.618 36.6861 160.929 28.1646 203.755 46.2518C208.177 48.0961 210.142 53.2365 208.132 57.5005L181.928 111.563C179.999 115.531 175.089 117.127 170.944 114.982Z" fill="#81A2EF"/>
<rect x="375.5" y="260" width="660" height="425" fill="#58D1BD"/>
<g filter="url(#filter0_d)">
<rect x="75.5" y="71" width="820" height="540" rx="10" fill="white"/>
</g>
<path d="M75.5 81C75.5 75.4772 79.9772 71 85.5 71H885.5C891.023 71 895.5 75.4772 895.5 81V117H75.5V81Z" fill="#EEF0F1"/>
<circle cx="108" cy="94.5" r="5.5" fill="#A6A9AB"/>
<circle cx="128" cy="94.5" r="5.5" fill="#A6A9AB"/>
<circle cx="148" cy="94.5" r="5.5" fill="#A6A9AB"/>
<rect x="125.5" y="194" width="466" height="96" rx="8" fill="#EBEEFF"/>
<path d="M125.5 322C125.5 317.582 129.082 314 133.5 314H583.5C587.918 314 591.5 317.582 591.5 322V611H125.5V322Z" fill="#EBEEFF"/>
<rect x="620.5" y="194" width="224" height="96" rx="8" fill="#EBEEFF"/>
<rect x="620.5" y="314" width="224" height="213" rx="8" fill="#EBEEFF"/>
<circle cx="669" cy="362.5" r="24.5" fill="#BACDF7"/>
<circle cx="734" cy="362.5" r="24.5" fill="#BACDF7"/>
<circle cx="799" cy="362.5" r="24.5" fill="#BACDF7"/>
<rect x="153.5" y="342" width="182.731" height="10" rx="5" fill="#BACDF7"/>
<rect x="153.5" y="218" width="269" height="10" rx="5" fill="#BACDF7"/>
<rect x="153.602" y="368" width="409.898" height="8" rx="4" fill="#BACDF7"/>
<rect x="153.602" y="448" width="409.898" height="8" rx="4" fill="#BACDF7"/>
<rect x="153.602" y="242" width="409.898" height="8" rx="4" fill="#BACDF7"/>
<rect x="153.602" y="388" width="384.904" height="8" rx="4" fill="#BACDF7"/>
<rect x="153.602" y="468" width="384.904" height="8" rx="4" fill="#BACDF7"/>
<rect x="153.5" y="262" width="239" height="8" rx="4" fill="#BACDF7"/>
<rect x="153.602" y="408" width="367.908" height="8" rx="4" fill="#BACDF7"/>
<rect x="153.602" y="488" width="367.908" height="8" rx="4" fill="#BACDF7"/>
<rect x="153.602" y="428" width="384.904" height="8" rx="4" fill="#BACDF7"/>
<rect x="153.602" y="508" width="384.904" height="8" rx="4" fill="#BACDF7"/>
<rect x="125.439" y="151" width="170" height="20" rx="10" fill="#3770FF"/>
<rect x="758.666" y="151.007" width="85.8952" height="20.0031" rx="10.0016" fill="#EEF0F1"/>
<rect x="656.79" y="151.007" width="85.8952" height="20.0031" rx="10.0016" fill="#EEF0F1"/>
<path d="M675.5 252H672.5C671.97 252 671.461 251.789 671.086 251.414C670.711 251.039 670.5 250.53 670.5 250V243C670.5 242.47 670.711 241.961 671.086 241.586C671.461 241.211 671.97 241 672.5 241H675.5M682.5 239V235C682.5 234.204 682.184 233.441 681.621 232.879C681.059 232.316 680.296 232 679.5 232L675.5 241V252H686.78C687.262 252.005 687.73 251.836 688.098 251.524C688.465 251.212 688.708 250.777 688.78 250.3L690.16 241.3C690.204 241.013 690.184 240.721 690.103 240.442C690.023 240.164 689.882 239.906 689.692 239.688C689.502 239.469 689.266 239.294 689.002 239.175C688.737 239.057 688.45 238.997 688.16 239H682.5Z" stroke="#BACDF7" stroke-width="2" stroke-linecap="round" stroke-linejoin="round"/>
<path d="M725.5 242C725.5 242 729.5 234 736.5 234C743.5 234 747.5 242 747.5 242C747.5 242 743.5 250 736.5 250C729.5 250 725.5 242 725.5 242Z" stroke="#BACDF7" stroke-width="2" stroke-linecap="round" stroke-linejoin="round"/>
<path d="M736.5 245C738.157 245 739.5 243.657 739.5 242C739.5 240.343 738.157 239 736.5 239C734.843 239 733.5 240.343 733.5 242C733.5 243.657 734.843 245 736.5 245Z" stroke="#BACDF7" stroke-width="2" stroke-linecap="round" stroke-linejoin="round"/>
<path d="M801.5 241.5C801.503 242.82 801.195 244.122 800.6 245.3C799.894 246.712 798.81 247.899 797.467 248.729C796.125 249.559 794.578 249.999 793 250C791.68 250.003 790.378 249.695 789.2 249.1L783.5 251L785.4 245.3C784.805 244.122 784.497 242.82 784.5 241.5C784.501 239.922 784.941 238.375 785.771 237.033C786.601 235.69 787.788 234.606 789.2 233.9C790.378 233.305 791.68 232.997 793 233H793.5C795.584 233.115 797.553 233.995 799.029 235.471C800.505 236.947 801.385 238.916 801.5 241V241.5Z" stroke="#BACDF7" stroke-width="2" stroke-linecap="round" stroke-linejoin="round"/>
<g filter="url(#filter1_d)">
<path fill-rule="evenodd" clip-rule="evenodd" d="M235.178 296H507.5C511.918 296 515.5 299.582 515.5 304V356C515.5 360.418 511.918 364 507.5 364H21.5C17.0817 364 13.5 360.418 13.5 356V304C13.5 299.582 17.0817 296 21.5 296H209.178L222.178 283L235.178 296Z" fill="#3936AB"/>
</g>
<path d="M32.9042 324H42.9842V326.52H39.2642V338H36.6242V326.52H32.9042V324ZM47.8503 333.86C47.8636 334.153 47.9303 334.427 48.0503 334.68C48.1836 334.92 48.357 335.133 48.5703 335.32C48.797 335.493 49.0503 335.633 49.3303 335.74C49.6236 335.833 49.9303 335.88 50.2503 335.88C50.877 335.88 51.357 335.773 51.6903 335.56C52.0236 335.333 52.2636 335.067 52.4103 334.76L54.5703 335.96C54.4503 336.213 54.2836 336.48 54.0703 336.76C53.857 337.027 53.577 337.273 53.2303 337.5C52.897 337.727 52.4836 337.913 51.9903 338.06C51.5103 338.207 50.9436 338.28 50.2903 338.28C49.5436 338.28 48.8636 338.16 48.2503 337.92C47.637 337.68 47.1036 337.333 46.6503 336.88C46.2103 336.427 45.8636 335.873 45.6103 335.22C45.3703 334.567 45.2503 333.827 45.2503 333V332.88C45.2503 332.12 45.377 331.427 45.6303 330.8C45.897 330.173 46.257 329.64 46.7103 329.2C47.1636 328.76 47.6903 328.42 48.2903 328.18C48.9036 327.927 49.557 327.8 50.2503 327.8C51.1036 327.8 51.837 327.953 52.4503 328.26C53.0636 328.553 53.5703 328.933 53.9703 329.4C54.3703 329.853 54.6636 330.36 54.8503 330.92C55.037 331.467 55.1303 332 55.1303 332.52V333.86H47.8503ZM50.2303 330.08C49.5903 330.08 49.0703 330.247 48.6703 330.58C48.2703 330.9 48.0103 331.273 47.8903 331.7H52.5703C52.4903 331.233 52.237 330.847 51.8103 330.54C51.397 330.233 50.8703 330.08 50.2303 330.08ZM57.8164 335.6H61.2964V326.4H57.9364V324H63.8164V335.6H67.0564V338H57.8164V335.6ZM70.0625 335.6H73.5425V326.4H70.1825V324H76.0625V335.6H79.3025V338H70.0625V335.6ZM94.3347 328.08H97.2747V324H99.7947V328.08H103.375V330.48H99.7947V335C99.7947 335.4 99.9747 335.6 100.335 335.6H103.015V338H98.8147C98.3614 338 97.988 337.853 97.6947 337.56C97.4147 337.267 97.2747 336.893 97.2747 336.44V330.48H94.3347V328.08ZM109.421 338H106.901V324H109.421V329.68H109.781C110.034 329.08 110.407 328.62 110.901 328.3C111.394 327.967 112.001 327.8 112.721 327.8C113.214 327.8 113.667 327.88 114.081 328.04C114.494 328.2 114.854 328.44 115.161 328.76C115.467 329.08 115.707 329.493 115.881 330C116.054 330.493 116.141 331.08 116.141 331.76V338H113.621V332.36C113.621 331.653 113.447 331.1 113.101 330.7C112.767 330.287 112.281 330.08 111.641 330.08C110.894 330.08 110.334 330.333 109.961 330.84C109.601 331.333 109.421 332 109.421 332.84V338ZM121.327 333.86C121.34 334.153 121.407 334.427 121.527 334.68C121.66 334.92 121.834 335.133 122.047 335.32C122.274 335.493 122.527 335.633 122.807 335.74C123.1 335.833 123.407 335.88 123.727 335.88C124.354 335.88 124.834 335.773 125.167 335.56C125.5 335.333 125.74 335.067 125.887 334.76L128.047 335.96C127.927 336.213 127.76 336.48 127.547 336.76C127.334 337.027 127.054 337.273 126.707 337.5C126.374 337.727 125.96 337.913 125.467 338.06C124.987 338.207 124.42 338.28 123.767 338.28C123.02 338.28 122.34 338.16 121.727 337.92C121.114 337.68 120.58 337.333 120.127 336.88C119.687 336.427 119.34 335.873 119.087 335.22C118.847 334.567 118.727 333.827 118.727 333V332.88C118.727 332.12 118.854 331.427 119.107 330.8C119.374 330.173 119.734 329.64 120.187 329.2C120.64 328.76 121.167 328.42 121.767 328.18C122.38 327.927 123.034 327.8 123.727 327.8C124.58 327.8 125.314 327.953 125.927 328.26C126.54 328.553 127.047 328.933 127.447 329.4C127.847 329.853 128.14 330.36 128.327 330.92C128.514 331.467 128.607 332 128.607 332.52V333.86H121.327ZM123.707 330.08C123.067 330.08 122.547 330.247 122.147 330.58C121.747 330.9 121.487 331.273 121.367 331.7H126.047C125.967 331.233 125.714 330.847 125.287 330.54C124.874 330.233 124.347 330.08 123.707 330.08ZM153.319 338H148.959L148.399 330.48V329.28H147.919V330.48L147.359 338H142.999L142.339 328.08H144.659L145.099 335.6V336.8H145.579V335.6L146.079 328.08H150.239L150.739 335.6V336.8H151.219V335.6L151.659 328.08H153.979L153.319 338ZM165.565 333.16C165.565 333.987 165.425 334.72 165.145 335.36C164.865 335.987 164.485 336.52 164.005 336.96C163.525 337.387 162.972 337.713 162.345 337.94C161.732 338.167 161.085 338.28 160.405 338.28C159.725 338.28 159.072 338.167 158.445 337.94C157.832 337.713 157.285 337.387 156.805 336.96C156.325 336.52 155.945 335.987 155.665 335.36C155.385 334.72 155.245 333.987 155.245 333.16V332.92C155.245 332.107 155.385 331.387 155.665 330.76C155.945 330.12 156.325 329.58 156.805 329.14C157.285 328.7 157.832 328.367 158.445 328.14C159.072 327.913 159.725 327.8 160.405 327.8C161.085 327.8 161.732 327.913 162.345 328.14C162.972 328.367 163.525 328.7 164.005 329.14C164.485 329.58 164.865 330.12 165.145 330.76C165.425 331.387 165.565 332.107 165.565 332.92V333.16ZM160.405 335.88C160.765 335.88 161.105 335.82 161.425 335.7C161.745 335.58 162.025 335.407 162.265 335.18C162.505 334.953 162.692 334.68 162.825 334.36C162.972 334.027 163.045 333.653 163.045 333.24V332.84C163.045 332.427 162.972 332.06 162.825 331.74C162.692 331.407 162.505 331.127 162.265 330.9C162.025 330.673 161.745 330.5 161.425 330.38C161.105 330.26 160.765 330.2 160.405 330.2C160.045 330.2 159.705 330.26 159.385 330.38C159.065 330.5 158.785 330.673 158.545 330.9C158.305 331.127 158.112 331.407 157.965 331.74C157.832 332.06 157.765 332.427 157.765 332.84V333.24C157.765 333.653 157.832 334.027 157.965 334.36C158.112 334.68 158.305 334.953 158.545 335.18C158.785 335.407 159.065 335.58 159.385 335.7C159.705 335.82 160.045 335.88 160.405 335.88ZM167.611 328.08H171.811V329.52H172.171C172.358 328.973 172.671 328.553 173.111 328.26C173.565 327.953 174.105 327.8 174.731 327.8C175.718 327.8 176.511 328.113 177.111 328.74C177.711 329.353 178.011 330.293 178.011 331.56V332L175.411 332.24V331.96C175.411 331.413 175.271 330.98 174.991 330.66C174.711 330.327 174.291 330.16 173.731 330.16C173.171 330.16 172.731 330.353 172.411 330.74C172.091 331.127 171.931 331.68 171.931 332.4V335.6H174.211V338H167.371V335.6H169.411V330.48H167.611V328.08ZM180.277 335.6H183.757V326.4H180.397V324H186.277V335.6H189.517V338H180.277V335.6ZM199.703 336.56H199.343C199.237 336.787 199.103 337.007 198.943 337.22C198.797 337.42 198.597 337.6 198.343 337.76C198.103 337.92 197.81 338.047 197.463 338.14C197.13 338.233 196.723 338.28 196.243 338.28C195.63 338.28 195.057 338.173 194.523 337.96C194.003 337.733 193.543 337.407 193.143 336.98C192.757 336.54 192.45 336.007 192.223 335.38C192.01 334.753 191.903 334.033 191.903 333.22V332.86C191.903 332.06 192.017 331.347 192.243 330.72C192.483 330.093 192.803 329.567 193.203 329.14C193.617 328.7 194.09 328.367 194.623 328.14C195.17 327.913 195.743 327.8 196.343 327.8C197.143 327.8 197.777 327.953 198.243 328.26C198.71 328.553 199.077 328.973 199.343 329.52H199.703V324H202.223V338H199.703V336.56ZM197.063 335.88C197.85 335.88 198.483 335.633 198.963 335.14C199.457 334.633 199.703 333.973 199.703 333.16V332.92C199.703 332.107 199.457 331.453 198.963 330.96C198.483 330.453 197.85 330.2 197.063 330.2C196.277 330.2 195.637 330.447 195.143 330.94C194.663 331.42 194.423 332.08 194.423 332.92V333.16C194.423 334 194.663 334.667 195.143 335.16C195.637 335.64 196.277 335.88 197.063 335.88ZM223.496 336.56C223.229 337.187 222.856 337.633 222.376 337.9C221.896 338.153 221.336 338.28 220.696 338.28C220.096 338.28 219.529 338.167 218.996 337.94C218.476 337.713 218.016 337.38 217.616 336.94C217.216 336.5 216.896 335.967 216.656 335.34C216.429 334.713 216.316 334 216.316 333.2V332.88C216.316 332.093 216.429 331.387 216.656 330.76C216.882 330.133 217.189 329.6 217.576 329.16C217.962 328.72 218.409 328.387 218.916 328.16C219.436 327.92 219.989 327.8 220.576 327.8C221.282 327.8 221.849 327.92 222.276 328.16C222.716 328.4 223.062 328.773 223.316 329.28H223.676V328.08H226.196V335C226.196 335.4 226.376 335.6 226.736 335.6H227.116V338H225.396C224.942 338 224.569 337.867 224.276 337.6C223.996 337.333 223.856 336.987 223.856 336.56H223.496ZM221.256 335.88C221.989 335.88 222.576 335.64 223.016 335.16C223.456 334.667 223.676 334 223.676 333.16V332.92C223.676 332.08 223.456 331.42 223.016 330.94C222.576 330.447 221.989 330.2 221.256 330.2C220.522 330.2 219.936 330.447 219.496 330.94C219.056 331.42 218.836 332.08 218.836 332.92V333.16C218.836 334 219.056 334.667 219.496 335.16C219.936 335.64 220.522 335.88 221.256 335.88ZM231.422 338H228.902V324H231.422V329.52H231.782C232.048 328.973 232.435 328.553 232.942 328.26C233.448 327.953 234.095 327.8 234.882 327.8C235.468 327.8 236.022 327.913 236.542 328.14C237.075 328.367 237.535 328.7 237.922 329.14C238.322 329.567 238.635 330.093 238.862 330.72C239.102 331.347 239.222 332.06 239.222 332.86V333.22C239.222 334.033 239.108 334.753 238.882 335.38C238.655 336.007 238.348 336.54 237.962 336.98C237.575 337.407 237.115 337.733 236.582 337.96C236.062 338.173 235.495 338.28 234.882 338.28C234.428 338.28 234.035 338.233 233.702 338.14C233.368 338.047 233.075 337.92 232.822 337.76C232.582 337.6 232.375 337.42 232.202 337.22C232.042 337.007 231.902 336.787 231.782 336.56H231.422V338ZM234.062 335.88C234.848 335.88 235.482 335.64 235.962 335.16C236.455 334.667 236.702 334 236.702 333.16V332.92C236.702 332.08 236.455 331.42 235.962 330.94C235.482 330.447 234.848 330.2 234.062 330.2C233.275 330.2 232.635 330.453 232.142 330.96C231.662 331.453 231.422 332.107 231.422 332.92V333.16C231.422 333.973 231.662 334.633 232.142 335.14C232.635 335.633 233.275 335.88 234.062 335.88ZM251.288 333.16C251.288 333.987 251.148 334.72 250.868 335.36C250.588 335.987 250.208 336.52 249.728 336.96C249.248 337.387 248.694 337.713 248.068 337.94C247.454 338.167 246.808 338.28 246.128 338.28C245.448 338.28 244.794 338.167 244.168 337.94C243.554 337.713 243.008 337.387 242.528 336.96C242.048 336.52 241.668 335.987 241.388 335.36C241.108 334.72 240.968 333.987 240.968 333.16V332.92C240.968 332.107 241.108 331.387 241.388 330.76C241.668 330.12 242.048 329.58 242.528 329.14C243.008 328.7 243.554 328.367 244.168 328.14C244.794 327.913 245.448 327.8 246.128 327.8C246.808 327.8 247.454 327.913 248.068 328.14C248.694 328.367 249.248 328.7 249.728 329.14C250.208 329.58 250.588 330.12 250.868 330.76C251.148 331.387 251.288 332.107 251.288 332.92V333.16ZM246.128 335.88C246.488 335.88 246.828 335.82 247.148 335.7C247.468 335.58 247.748 335.407 247.988 335.18C248.228 334.953 248.414 334.68 248.548 334.36C248.694 334.027 248.768 333.653 248.768 333.24V332.84C248.768 332.427 248.694 332.06 248.548 331.74C248.414 331.407 248.228 331.127 247.988 330.9C247.748 330.673 247.468 330.5 247.148 330.38C246.828 330.26 246.488 330.2 246.128 330.2C245.768 330.2 245.428 330.26 245.108 330.38C244.788 330.5 244.508 330.673 244.268 330.9C244.028 331.127 243.834 331.407 243.688 331.74C243.554 332.06 243.488 332.427 243.488 332.84V333.24C243.488 333.653 243.554 334.027 243.688 334.36C243.834 334.68 244.028 334.953 244.268 335.18C244.508 335.407 244.788 335.58 245.108 335.7C245.428 335.82 245.768 335.88 246.128 335.88ZM260.534 328.08H263.054V338H260.534V336.56H260.174C259.734 337.707 258.787 338.28 257.334 338.28C256.841 338.28 256.381 338.2 255.954 338.04C255.527 337.88 255.154 337.633 254.834 337.3C254.514 336.967 254.261 336.553 254.074 336.06C253.901 335.553 253.814 334.96 253.814 334.28V328.08H256.334V333.76C256.334 334.467 256.501 335.02 256.834 335.42C257.167 335.807 257.667 336 258.334 336C259.094 336 259.647 335.76 259.994 335.28C260.354 334.787 260.534 334.12 260.534 333.28V328.08ZM265.78 328.08H268.72V324H271.24V328.08H274.82V330.48H271.24V335C271.24 335.4 271.42 335.6 271.78 335.6H274.46V338H270.26C269.807 338 269.433 337.853 269.14 337.56C268.86 337.267 268.72 336.893 268.72 336.44V330.48H265.78V328.08ZM297.272 328.08H299.792V340.44C299.792 340.893 299.646 341.267 299.352 341.56C299.072 341.853 298.706 342 298.252 342H292.352V339.6H296.732C297.092 339.6 297.272 339.4 297.272 339V336.56H296.912C296.472 337.707 295.526 338.28 294.072 338.28C293.579 338.28 293.119 338.2 292.692 338.04C292.266 337.88 291.892 337.633 291.572 337.3C291.252 336.967 290.999 336.553 290.812 336.06C290.639 335.553 290.552 334.96 290.552 334.28V328.08H293.072V333.76C293.072 334.467 293.239 335.02 293.572 335.42C293.906 335.807 294.406 336 295.072 336C295.832 336 296.386 335.76 296.732 335.28C297.092 334.787 297.272 334.12 297.272 333.28V328.08ZM312.518 333.16C312.518 333.987 312.378 334.72 312.098 335.36C311.818 335.987 311.438 336.52 310.958 336.96C310.478 337.387 309.925 337.713 309.298 337.94C308.685 338.167 308.038 338.28 307.358 338.28C306.678 338.28 306.025 338.167 305.398 337.94C304.785 337.713 304.238 337.387 303.758 336.96C303.278 336.52 302.898 335.987 302.618 335.36C302.338 334.72 302.198 333.987 302.198 333.16V332.92C302.198 332.107 302.338 331.387 302.618 330.76C302.898 330.12 303.278 329.58 303.758 329.14C304.238 328.7 304.785 328.367 305.398 328.14C306.025 327.913 306.678 327.8 307.358 327.8C308.038 327.8 308.685 327.913 309.298 328.14C309.925 328.367 310.478 328.7 310.958 329.14C311.438 329.58 311.818 330.12 312.098 330.76C312.378 331.387 312.518 332.107 312.518 332.92V333.16ZM307.358 335.88C307.718 335.88 308.058 335.82 308.378 335.7C308.698 335.58 308.978 335.407 309.218 335.18C309.458 334.953 309.645 334.68 309.778 334.36C309.925 334.027 309.998 333.653 309.998 333.24V332.84C309.998 332.427 309.925 332.06 309.778 331.74C309.645 331.407 309.458 331.127 309.218 330.9C308.978 330.673 308.698 330.5 308.378 330.38C308.058 330.26 307.718 330.2 307.358 330.2C306.998 330.2 306.658 330.26 306.338 330.38C306.018 330.5 305.738 330.673 305.498 330.9C305.258 331.127 305.065 331.407 304.918 331.74C304.785 332.06 304.718 332.427 304.718 332.84V333.24C304.718 333.653 304.785 334.027 304.918 334.36C305.065 334.68 305.258 334.953 305.498 335.18C305.738 335.407 306.018 335.58 306.338 335.7C306.658 335.82 306.998 335.88 307.358 335.88ZM321.764 328.08H324.284V338H321.764V336.56H321.404C320.964 337.707 320.018 338.28 318.564 338.28C318.071 338.28 317.611 338.2 317.184 338.04C316.758 337.88 316.384 337.633 316.064 337.3C315.744 336.967 315.491 336.553 315.304 336.06C315.131 335.553 315.044 334.96 315.044 334.28V328.08H317.564V333.76C317.564 334.467 317.731 335.02 318.064 335.42C318.398 335.807 318.898 336 319.564 336C320.324 336 320.878 335.76 321.224 335.28C321.584 334.787 321.764 334.12 321.764 333.28V328.08ZM326.81 328.08H331.01V329.52H331.37C331.557 328.973 331.87 328.553 332.31 328.26C332.764 327.953 333.304 327.8 333.93 327.8C334.917 327.8 335.71 328.113 336.31 328.74C336.91 329.353 337.21 330.293 337.21 331.56V332L334.61 332.24V331.96C334.61 331.413 334.47 330.98 334.19 330.66C333.91 330.327 333.49 330.16 332.93 330.16C332.37 330.16 331.93 330.353 331.61 330.74C331.29 331.127 331.13 331.68 331.13 332.4V335.6H333.41V338H326.57V335.6H328.61V330.48H326.81V328.08ZM361.743 338H359.223V331.04C359.223 330.76 359.149 330.553 359.003 330.42C358.869 330.273 358.689 330.2 358.463 330.2C358.196 330.2 357.983 330.28 357.823 330.44C357.676 330.6 357.603 330.84 357.603 331.16V338H355.083V331.04C355.083 330.76 355.003 330.553 354.843 330.42C354.696 330.273 354.516 330.2 354.303 330.2C354.063 330.2 353.863 330.28 353.703 330.44C353.543 330.6 353.463 330.84 353.463 331.16V338H350.943V328.08H353.463V329.04H353.823C353.903 328.68 354.083 328.387 354.363 328.16C354.656 327.92 355.036 327.8 355.503 327.8C355.943 327.8 356.316 327.92 356.623 328.16C356.929 328.387 357.136 328.68 357.243 329.04H357.603C357.709 328.68 357.929 328.387 358.263 328.16C358.609 327.92 359.036 327.8 359.543 327.8C360.209 327.8 360.743 328.027 361.143 328.48C361.543 328.92 361.743 329.533 361.743 330.32V338ZM370.449 336.56C370.182 337.187 369.809 337.633 369.329 337.9C368.849 338.153 368.289 338.28 367.649 338.28C367.049 338.28 366.482 338.167 365.949 337.94C365.429 337.713 364.969 337.38 364.569 336.94C364.169 336.5 363.849 335.967 363.609 335.34C363.382 334.713 363.269 334 363.269 333.2V332.88C363.269 332.093 363.382 331.387 363.609 330.76C363.835 330.133 364.142 329.6 364.529 329.16C364.915 328.72 365.362 328.387 365.869 328.16C366.389 327.92 366.942 327.8 367.529 327.8C368.235 327.8 368.802 327.92 369.229 328.16C369.669 328.4 370.015 328.773 370.269 329.28H370.629V328.08H373.149V335C373.149 335.4 373.329 335.6 373.689 335.6H374.069V338H372.349C371.895 338 371.522 337.867 371.229 337.6C370.949 337.333 370.809 336.987 370.809 336.56H370.449ZM368.209 335.88C368.942 335.88 369.529 335.64 369.969 335.16C370.409 334.667 370.629 334 370.629 333.16V332.92C370.629 332.08 370.409 331.42 369.969 330.94C369.529 330.447 368.942 330.2 368.209 330.2C367.475 330.2 366.889 330.447 366.449 330.94C366.009 331.42 365.789 332.08 365.789 332.92V333.16C365.789 334 366.009 334.667 366.449 335.16C366.889 335.64 367.475 335.88 368.209 335.88ZM379.435 330.88C379.435 331.2 379.602 331.433 379.935 331.58C380.268 331.713 380.875 331.827 381.755 331.92C382.768 332.027 383.595 332.333 384.235 332.84C384.875 333.333 385.195 334.027 385.195 334.92V335.04C385.195 336.027 384.835 336.813 384.115 337.4C383.395 337.987 382.382 338.28 381.075 338.28C380.302 338.28 379.642 338.18 379.095 337.98C378.548 337.78 378.095 337.533 377.735 337.24C377.375 336.933 377.095 336.6 376.895 336.24C376.708 335.867 376.582 335.507 376.515 335.16L378.835 334.4C378.942 334.827 379.162 335.2 379.495 335.52C379.842 335.84 380.368 336 381.075 336C381.702 336 382.128 335.907 382.355 335.72C382.595 335.52 382.715 335.307 382.715 335.08C382.715 334.947 382.682 334.827 382.615 334.72C382.562 334.6 382.455 334.493 382.295 334.4C382.135 334.293 381.915 334.207 381.635 334.14C381.368 334.073 381.028 334.02 380.615 333.98C379.495 333.887 378.602 333.6 377.935 333.12C377.282 332.627 376.955 331.907 376.955 330.96V330.84C376.955 330.347 377.062 329.913 377.275 329.54C377.488 329.167 377.768 328.853 378.115 328.6C378.462 328.333 378.862 328.133 379.315 328C379.768 327.867 380.235 327.8 380.715 327.8C381.342 327.8 381.882 327.88 382.335 328.04C382.802 328.187 383.195 328.387 383.515 328.64C383.835 328.88 384.095 329.153 384.295 329.46C384.495 329.753 384.648 330.04 384.755 330.32L382.475 331.24C382.355 330.88 382.148 330.6 381.855 330.4C381.562 330.187 381.182 330.08 380.715 330.08C380.288 330.08 379.968 330.16 379.755 330.32C379.542 330.467 379.435 330.653 379.435 330.88ZM388.241 328.08H391.181V324H393.701V328.08H397.281V330.48H393.701V335C393.701 335.4 393.881 335.6 394.241 335.6H396.921V338H392.721C392.268 338 391.894 337.853 391.601 337.56C391.321 337.267 391.181 336.893 391.181 336.44V330.48H388.241V328.08ZM402.987 333.86C403 334.153 403.067 334.427 403.187 334.68C403.32 334.92 403.494 335.133 403.707 335.32C403.934 335.493 404.187 335.633 404.467 335.74C404.76 335.833 405.067 335.88 405.387 335.88C406.014 335.88 406.494 335.773 406.827 335.56C407.16 335.333 407.4 335.067 407.547 334.76L409.707 335.96C409.587 336.213 409.42 336.48 409.207 336.76C408.994 337.027 408.714 337.273 408.367 337.5C408.034 337.727 407.62 337.913 407.127 338.06C406.647 338.207 406.08 338.28 405.427 338.28C404.68 338.28 404 338.16 403.387 337.92C402.774 337.68 402.24 337.333 401.787 336.88C401.347 336.427 401 335.873 400.747 335.22C400.507 334.567 400.387 333.827 400.387 333V332.88C400.387 332.12 400.514 331.427 400.767 330.8C401.034 330.173 401.394 329.64 401.847 329.2C402.3 328.76 402.827 328.42 403.427 328.18C404.04 327.927 404.694 327.8 405.387 327.8C406.24 327.8 406.974 327.953 407.587 328.26C408.2 328.553 408.707 328.933 409.107 329.4C409.507 329.853 409.8 330.36 409.987 330.92C410.174 331.467 410.267 332 410.267 332.52V333.86H402.987ZM405.367 330.08C404.727 330.08 404.207 330.247 403.807 330.58C403.407 330.9 403.147 331.273 403.027 331.7H407.707C407.627 331.233 407.374 330.847 406.947 330.54C406.534 330.233 406.007 330.08 405.367 330.08ZM412.533 328.08H416.733V329.52H417.093C417.28 328.973 417.593 328.553 418.033 328.26C418.486 327.953 419.026 327.8 419.653 327.8C420.64 327.8 421.433 328.113 422.033 328.74C422.633 329.353 422.933 330.293 422.933 331.56V332L420.333 332.24V331.96C420.333 331.413 420.193 330.98 419.913 330.66C419.633 330.327 419.213 330.16 418.653 330.16C418.093 330.16 417.653 330.353 417.333 330.74C417.013 331.127 416.853 331.68 416.853 332.4V335.6H419.133V338H412.293V335.6H414.333V330.48H412.533V328.08ZM427.259 342H424.739V328.08H427.259V329.52H427.619C427.886 328.973 428.273 328.553 428.779 328.26C429.286 327.953 429.933 327.8 430.719 327.8C431.306 327.8 431.859 327.913 432.379 328.14C432.913 328.367 433.373 328.7 433.759 329.14C434.159 329.567 434.473 330.093 434.699 330.72C434.939 331.347 435.059 332.06 435.059 332.86V333.22C435.059 334.033 434.946 334.753 434.719 335.38C434.493 336.007 434.186 336.54 433.799 336.98C433.413 337.407 432.953 337.733 432.419 337.96C431.899 338.173 431.333 338.28 430.719 338.28C430.266 338.28 429.873 338.233 429.539 338.14C429.206 338.047 428.913 337.92 428.659 337.76C428.419 337.6 428.213 337.42 428.039 337.22C427.879 337.007 427.739 336.787 427.619 336.56H427.259V342ZM429.899 335.88C430.686 335.88 431.319 335.64 431.799 335.16C432.293 334.667 432.539 334 432.539 333.16V332.92C432.539 332.08 432.293 331.42 431.799 330.94C431.319 330.447 430.686 330.2 429.899 330.2C429.113 330.2 428.473 330.453 427.979 330.96C427.499 331.453 427.259 332.107 427.259 332.92V333.16C427.259 333.973 427.499 334.633 427.979 335.14C428.473 335.633 429.113 335.88 429.899 335.88ZM437.685 335.6H441.045V330.48H437.925V328.08H443.565V335.6H446.445V338H437.685V335.6ZM444.185 325.14C444.185 325.407 444.132 325.66 444.025 325.9C443.932 326.127 443.799 326.327 443.625 326.5C443.452 326.66 443.245 326.793 443.005 326.9C442.779 326.993 442.539 327.04 442.285 327.04C442.019 327.04 441.772 326.993 441.545 326.9C441.319 326.793 441.119 326.66 440.945 326.5C440.772 326.327 440.632 326.127 440.525 325.9C440.432 325.66 440.385 325.407 440.385 325.14C440.385 324.873 440.432 324.627 440.525 324.4C440.632 324.16 440.772 323.96 440.945 323.8C441.119 323.627 441.319 323.493 441.545 323.4C441.772 323.293 442.019 323.24 442.285 323.24C442.539 323.24 442.779 323.293 443.005 323.4C443.245 323.493 443.452 323.627 443.625 323.8C443.799 323.96 443.932 324.16 444.025 324.4C444.132 324.627 444.185 324.873 444.185 325.14ZM451.971 333.86C451.985 334.153 452.051 334.427 452.171 334.68C452.305 334.92 452.478 335.133 452.691 335.32C452.918 335.493 453.171 335.633 453.451 335.74C453.745 335.833 454.051 335.88 454.371 335.88C454.998 335.88 455.478 335.773 455.811 335.56C456.145 335.333 456.385 335.067 456.531 334.76L458.691 335.96C458.571 336.213 458.405 336.48 458.191 336.76C457.978 337.027 457.698 337.273 457.351 337.5C457.018 337.727 456.605 337.913 456.111 338.06C455.631 338.207 455.065 338.28 454.411 338.28C453.665 338.28 452.985 338.16 452.371 337.92C451.758 337.68 451.225 337.333 450.771 336.88C450.331 336.427 449.985 335.873 449.731 335.22C449.491 334.567 449.371 333.827 449.371 333V332.88C449.371 332.12 449.498 331.427 449.751 330.8C450.018 330.173 450.378 329.64 450.831 329.2C451.285 328.76 451.811 328.42 452.411 328.18C453.025 327.927 453.678 327.8 454.371 327.8C455.225 327.8 455.958 327.953 456.571 328.26C457.185 328.553 457.691 328.933 458.091 329.4C458.491 329.853 458.785 330.36 458.971 330.92C459.158 331.467 459.251 332 459.251 332.52V333.86H451.971ZM454.351 330.08C453.711 330.08 453.191 330.247 452.791 330.58C452.391 330.9 452.131 331.273 452.011 331.7H456.691C456.611 331.233 456.358 330.847 455.931 330.54C455.518 330.233 454.991 330.08 454.351 330.08ZM471.678 334.36C471.451 335.533 470.911 336.48 470.058 337.2C469.218 337.92 468.091 338.28 466.678 338.28C465.944 338.28 465.258 338.167 464.618 337.94C463.991 337.713 463.444 337.387 462.978 336.96C462.511 336.533 462.144 336.007 461.878 335.38C461.611 334.753 461.478 334.04 461.478 333.24V333C461.478 332.2 461.611 331.48 461.878 330.84C462.144 330.2 462.511 329.653 462.978 329.2C463.458 328.747 464.011 328.4 464.638 328.16C465.278 327.92 465.958 327.8 466.678 327.8C468.064 327.8 469.184 328.16 470.038 328.88C470.904 329.6 471.451 330.547 471.678 331.72L469.198 332.36C469.118 331.773 468.864 331.267 468.438 330.84C468.011 330.413 467.411 330.2 466.638 330.2C466.278 330.2 465.938 330.267 465.618 330.4C465.298 330.533 465.018 330.727 464.778 330.98C464.538 331.22 464.344 331.52 464.198 331.88C464.064 332.227 463.998 332.62 463.998 333.06V333.18C463.998 333.62 464.064 334.013 464.198 334.36C464.344 334.693 464.538 334.973 464.778 335.2C465.018 335.427 465.298 335.6 465.618 335.72C465.938 335.827 466.278 335.88 466.638 335.88C467.411 335.88 467.998 335.687 468.398 335.3C468.811 334.913 469.078 334.393 469.198 333.74L471.678 334.36ZM476.464 333.86C476.477 334.153 476.544 334.427 476.664 334.68C476.797 334.92 476.97 335.133 477.184 335.32C477.41 335.493 477.664 335.633 477.944 335.74C478.237 335.833 478.544 335.88 478.864 335.88C479.49 335.88 479.97 335.773 480.304 335.56C480.637 335.333 480.877 335.067 481.024 334.76L483.184 335.96C483.064 336.213 482.897 336.48 482.684 336.76C482.47 337.027 482.19 337.273 481.844 337.5C481.51 337.727 481.097 337.913 480.604 338.06C480.124 338.207 479.557 338.28 478.904 338.28C478.157 338.28 477.477 338.16 476.864 337.92C476.25 337.68 475.717 337.333 475.264 336.88C474.824 336.427 474.477 335.873 474.224 335.22C473.984 334.567 473.864 333.827 473.864 333V332.88C473.864 332.12 473.99 331.427 474.244 330.8C474.51 330.173 474.87 329.64 475.324 329.2C475.777 328.76 476.304 328.42 476.904 328.18C477.517 327.927 478.17 327.8 478.864 327.8C479.717 327.8 480.45 327.953 481.064 328.26C481.677 328.553 482.184 328.933 482.584 329.4C482.984 329.853 483.277 330.36 483.464 330.92C483.65 331.467 483.744 332 483.744 332.52V333.86H476.464ZM478.844 330.08C478.204 330.08 477.684 330.247 477.284 330.58C476.884 330.9 476.624 331.273 476.504 331.7H481.184C481.104 331.233 480.85 330.847 480.424 330.54C480.01 330.233 479.484 330.08 478.844 330.08ZM492.95 336.38C492.95 336.647 492.896 336.9 492.79 337.14C492.696 337.367 492.563 337.567 492.39 337.74C492.216 337.9 492.01 338.027 491.77 338.12C491.543 338.227 491.303 338.28 491.05 338.28C490.783 338.28 490.536 338.227 490.31 338.12C490.083 338.027 489.883 337.9 489.71 337.74C489.536 337.567 489.396 337.367 489.29 337.14C489.196 336.9 489.15 336.647 489.15 336.38C489.15 336.113 489.196 335.867 489.29 335.64C489.396 335.4 489.536 335.2 489.71 335.04C489.883 334.867 490.083 334.733 490.31 334.64C490.536 334.533 490.783 334.48 491.05 334.48C491.303 334.48 491.543 334.533 491.77 334.64C492.01 334.733 492.216 334.867 492.39 335.04C492.563 335.2 492.696 335.4 492.79 335.64C492.896 335.867 492.95 336.113 492.95 336.38Z" fill="white"/>
<mask id="mask0" mask-type="alpha" maskUnits="userSpaceOnUse" x="13" y="283" width="503" height="81">
<path d="M235.178 296H507.5C511.918 296 515.5 299.582 515.5 304V356C515.5 360.418 511.918 364 507.5 364H21.5C17.0817 364 13.5 360.418 13.5 356V304C13.5 299.582 17.0817 296 21.5 296H209.178L222.178 283L235.178 296Z" fill="#C4C4C4"/>
</mask>
<g mask="url(#mask0)">
<path d="M511.352 322.798C507.484 313.428 499.585 306.934 490.573 305.044C481.561 303.155 471.628 306.581 463.967 313.616C457.287 309.107 449.926 303.91 443.169 299.463C453.002 290.555 465.185 285.193 476.947 283.879C489.198 282.541 501.59 285.789 512.105 291.906C522.164 297.774 530.528 306.736 535.411 318.626C527.315 320.079 519.449 321.345 511.352 322.798Z" fill="#FFD74A"/>
</g>
<circle cx="222" cy="276.5" r="3.5" fill="#3936AB"/>
<circle cx="735" cy="218.5" r="3.5" fill="#3936AB"/>
<g filter="url(#filter2_d)">
<path fill-rule="evenodd" clip-rule="evenodd" d="M655.5 143C651.082 143 647.5 146.582 647.5 151V193C647.5 197.418 651.082 201 655.5 201H725.358L734.642 210.284L743.926 201H812.5C816.918 201 820.5 197.418 820.5 193V151C820.5 146.582 816.918 143 812.5 143H655.5Z" fill="#3936AB"/>
</g>
<path d="M668.843 166.4H677.915V168.668H674.567V179H672.191V168.668H668.843V166.4ZM679.865 170.072H683.645V171.368H683.969C684.137 170.876 684.419 170.498 684.815 170.234C685.223 169.958 685.709 169.82 686.273 169.82C687.161 169.82 687.875 170.102 688.415 170.666C688.955 171.218 689.225 172.064 689.225 173.204V173.6L686.885 173.816V173.564C686.885 173.072 686.759 172.682 686.507 172.394C686.255 172.094 685.877 171.944 685.373 171.944C684.869 171.944 684.473 172.118 684.185 172.466C683.897 172.814 683.753 173.312 683.753 173.96V176.84H685.805V179H679.649V176.84H681.485V172.232H679.865V170.072ZM697.096 177.704C696.856 178.268 696.52 178.67 696.088 178.91C695.656 179.138 695.152 179.252 694.576 179.252C694.036 179.252 693.526 179.15 693.046 178.946C692.578 178.742 692.164 178.442 691.804 178.046C691.444 177.65 691.156 177.17 690.94 176.606C690.736 176.042 690.634 175.4 690.634 174.68V174.392C690.634 173.684 690.736 173.048 690.94 172.484C691.144 171.92 691.42 171.44 691.768 171.044C692.116 170.648 692.518 170.348 692.974 170.144C693.442 169.928 693.94 169.82 694.468 169.82C695.104 169.82 695.614 169.928 695.998 170.144C696.394 170.36 696.706 170.696 696.934 171.152H697.258V170.072H699.526V176.3C699.526 176.66 699.688 176.84 700.012 176.84H700.354V179H698.806C698.398 179 698.062 178.88 697.798 178.64C697.546 178.4 697.42 178.088 697.42 177.704H697.096ZM695.08 177.092C695.74 177.092 696.268 176.876 696.664 176.444C697.06 176 697.258 175.4 697.258 174.644V174.428C697.258 173.672 697.06 173.078 696.664 172.646C696.268 172.202 695.74 171.98 695.08 171.98C694.42 171.98 693.892 172.202 693.496 172.646C693.1 173.078 692.902 173.672 692.902 174.428V174.644C692.902 175.4 693.1 176 693.496 176.444C693.892 176.876 694.42 177.092 695.08 177.092ZM711.052 175.724C710.848 176.78 710.362 177.632 709.594 178.28C708.838 178.928 707.824 179.252 706.552 179.252C705.892 179.252 705.274 179.15 704.698 178.946C704.134 178.742 703.642 178.448 703.222 178.064C702.802 177.68 702.472 177.206 702.232 176.642C701.992 176.078 701.872 175.436 701.872 174.716V174.5C701.872 173.78 701.992 173.132 702.232 172.556C702.472 171.98 702.802 171.488 703.222 171.08C703.654 170.672 704.152 170.36 704.716 170.144C705.292 169.928 705.904 169.82 706.552 169.82C707.8 169.82 708.808 170.144 709.576 170.792C710.356 171.44 710.848 172.292 711.052 173.348L708.82 173.924C708.748 173.396 708.52 172.94 708.136 172.556C707.752 172.172 707.212 171.98 706.516 171.98C706.192 171.98 705.886 172.04 705.598 172.16C705.31 172.28 705.058 172.454 704.842 172.682C704.626 172.898 704.452 173.168 704.32 173.492C704.2 173.804 704.14 174.158 704.14 174.554V174.662C704.14 175.058 704.2 175.412 704.32 175.724C704.452 176.024 704.626 176.276 704.842 176.48C705.058 176.684 705.31 176.84 705.598 176.948C705.886 177.044 706.192 177.092 706.516 177.092C707.212 177.092 707.74 176.918 708.1 176.57C708.472 176.222 708.712 175.754 708.82 175.166L711.052 175.724ZM716.349 173.348H716.781L719.157 170.072H721.641V170.18L718.761 174.266V174.59L721.929 178.892V179H719.337L716.781 175.508H716.349V179H714.081V166.4H716.349V173.348ZM738.248 172.592C738.248 172.88 738.398 173.09 738.698 173.222C738.998 173.342 739.544 173.444 740.336 173.528C741.248 173.624 741.992 173.9 742.568 174.356C743.144 174.8 743.432 175.424 743.432 176.228V176.336C743.432 177.224 743.108 177.932 742.46 178.46C741.812 178.988 740.9 179.252 739.724 179.252C739.028 179.252 738.434 179.162 737.942 178.982C737.45 178.802 737.042 178.58 736.718 178.316C736.394 178.04 736.142 177.74 735.962 177.416C735.794 177.08 735.68 176.756 735.62 176.444L737.708 175.76C737.804 176.144 738.002 176.48 738.302 176.768C738.614 177.056 739.088 177.2 739.724 177.2C740.288 177.2 740.672 177.116 740.876 176.948C741.092 176.768 741.2 176.576 741.2 176.372C741.2 176.252 741.17 176.144 741.11 176.048C741.062 175.94 740.966 175.844 740.822 175.76C740.678 175.664 740.48 175.586 740.228 175.526C739.988 175.466 739.682 175.418 739.31 175.382C738.302 175.298 737.498 175.04 736.898 174.608C736.31 174.164 736.016 173.516 736.016 172.664V172.556C736.016 172.112 736.112 171.722 736.304 171.386C736.496 171.05 736.748 170.768 737.06 170.54C737.372 170.3 737.732 170.12 738.14 170C738.548 169.88 738.968 169.82 739.4 169.82C739.964 169.82 740.45 169.892 740.858 170.036C741.278 170.168 741.632 170.348 741.92 170.576C742.208 170.792 742.442 171.038 742.622 171.314C742.802 171.578 742.94 171.836 743.036 172.088L740.984 172.916C740.876 172.592 740.69 172.34 740.426 172.16C740.162 171.968 739.82 171.872 739.4 171.872C739.016 171.872 738.728 171.944 738.536 172.088C738.344 172.22 738.248 172.388 738.248 172.592ZM746.173 170.072H748.819V166.4H751.087V170.072H754.309V172.232H751.087V176.3C751.087 176.66 751.249 176.84 751.573 176.84H753.985V179H750.205C749.797 179 749.461 178.868 749.197 178.604C748.945 178.34 748.819 178.004 748.819 177.596V172.232H746.173V170.072ZM763.225 177.704C762.985 178.268 762.649 178.67 762.217 178.91C761.785 179.138 761.281 179.252 760.705 179.252C760.165 179.252 759.655 179.15 759.175 178.946C758.707 178.742 758.293 178.442 757.933 178.046C757.573 177.65 757.285 177.17 757.069 176.606C756.865 176.042 756.763 175.4 756.763 174.68V174.392C756.763 173.684 756.865 173.048 757.069 172.484C757.273 171.92 757.549 171.44 757.897 171.044C758.245 170.648 758.647 170.348 759.103 170.144C759.571 169.928 760.069 169.82 760.597 169.82C761.233 169.82 761.743 169.928 762.127 170.144C762.523 170.36 762.835 170.696 763.063 171.152H763.387V170.072H765.655V176.3C765.655 176.66 765.817 176.84 766.141 176.84H766.483V179H764.935C764.527 179 764.191 178.88 763.927 178.64C763.675 178.4 763.549 178.088 763.549 177.704H763.225ZM761.209 177.092C761.869 177.092 762.397 176.876 762.793 176.444C763.189 176 763.387 175.4 763.387 174.644V174.428C763.387 173.672 763.189 173.078 762.793 172.646C762.397 172.202 761.869 171.98 761.209 171.98C760.549 171.98 760.021 172.202 759.625 172.646C759.229 173.078 759.031 173.672 759.031 174.428V174.644C759.031 175.4 759.229 176 759.625 176.444C760.021 176.876 760.549 177.092 761.209 177.092ZM768.216 170.072H770.862V166.4H773.13V170.072H776.352V172.232H773.13V176.3C773.13 176.66 773.292 176.84 773.616 176.84H776.028V179H772.248C771.84 179 771.504 178.868 771.24 178.604C770.988 178.34 770.862 178.004 770.862 177.596V172.232H768.216V170.072ZM782.334 172.592C782.334 172.88 782.484 173.09 782.784 173.222C783.084 173.342 783.63 173.444 784.422 173.528C785.334 173.624 786.078 173.9 786.654 174.356C787.23 174.8 787.518 175.424 787.518 176.228V176.336C787.518 177.224 787.194 177.932 786.546 178.46C785.898 178.988 784.986 179.252 783.81 179.252C783.114 179.252 782.52 179.162 782.028 178.982C781.536 178.802 781.128 178.58 780.804 178.316C780.48 178.04 780.228 177.74 780.048 177.416C779.88 177.08 779.766 176.756 779.706 176.444L781.794 175.76C781.89 176.144 782.088 176.48 782.388 176.768C782.7 177.056 783.174 177.2 783.81 177.2C784.374 177.2 784.758 177.116 784.962 176.948C785.178 176.768 785.286 176.576 785.286 176.372C785.286 176.252 785.256 176.144 785.196 176.048C785.148 175.94 785.052 175.844 784.908 175.76C784.764 175.664 784.566 175.586 784.314 175.526C784.074 175.466 783.768 175.418 783.396 175.382C782.388 175.298 781.584 175.04 780.984 174.608C780.396 174.164 780.102 173.516 780.102 172.664V172.556C780.102 172.112 780.198 171.722 780.39 171.386C780.582 171.05 780.834 170.768 781.146 170.54C781.458 170.3 781.818 170.12 782.226 170C782.634 169.88 783.054 169.82 783.486 169.82C784.05 169.82 784.536 169.892 784.944 170.036C785.364 170.168 785.718 170.348 786.006 170.576C786.294 170.792 786.528 171.038 786.708 171.314C786.888 171.578 787.026 171.836 787.122 172.088L785.07 172.916C784.962 172.592 784.776 172.34 784.512 172.16C784.248 171.968 783.906 171.872 783.486 171.872C783.102 171.872 782.814 171.944 782.622 172.088C782.43 172.22 782.334 172.388 782.334 172.592ZM796.325 177.542C796.325 177.782 796.277 178.01 796.181 178.226C796.097 178.43 795.977 178.61 795.821 178.766C795.665 178.91 795.479 179.024 795.263 179.108C795.059 179.204 794.843 179.252 794.615 179.252C794.375 179.252 794.153 179.204 793.949 179.108C793.745 179.024 793.565 178.91 793.409 178.766C793.253 178.61 793.127 178.43 793.031 178.226C792.947 178.01 792.905 177.782 792.905 177.542C792.905 177.302 792.947 177.08 793.031 176.876C793.127 176.66 793.253 176.48 793.409 176.336C793.565 176.18 793.745 176.06 793.949 175.976C794.153 175.88 794.375 175.832 794.615 175.832C794.843 175.832 795.059 175.88 795.263 175.976C795.479 176.06 795.665 176.18 795.821 176.336C795.977 176.48 796.097 176.66 796.181 176.876C796.277 177.08 796.325 177.302 796.325 177.542Z" fill="white"/>
<circle cx="732" cy="405.5" r="3.5" fill="#3936AB"/>
<g filter="url(#filter3_d)">
<path fill-rule="evenodd" clip-rule="evenodd" d="M740.643 424.001H937.5C941.918 424.001 945.5 427.583 945.5 432.001V474.001C945.5 478.419 941.918 482.001 937.5 482.001H692.5C688.082 482.001 684.5 478.419 684.5 474.001V432.001C684.5 427.583 688.082 424.001 692.5 424.001H722.641L731.642 415L740.643 424.001Z" fill="#3936AB"/>
</g>
<path d="M700.07 447.401H708.494V449.669H705.47V457.733H708.494V460.001H700.07V457.733H703.094V449.669H700.07V447.401ZM713.468 460.001H711.2V451.073H713.468V452.405H713.792C713.996 451.901 714.326 451.511 714.782 451.235C715.238 450.959 715.772 450.821 716.384 450.821C716.816 450.821 717.218 450.893 717.59 451.037C717.974 451.169 718.31 451.379 718.598 451.667C718.886 451.955 719.108 452.321 719.264 452.765C719.432 453.209 719.516 453.737 719.516 454.349V460.001H717.248V454.925C717.248 454.289 717.092 453.791 716.78 453.431C716.48 453.059 716.042 452.873 715.466 452.873C714.794 452.873 714.29 453.101 713.954 453.557C713.63 454.001 713.468 454.601 713.468 455.357V460.001ZM721.591 451.073H724.039L726.145 458.921H726.469L728.575 451.073H731.023L728.467 460.001H724.147L721.591 451.073ZM733.405 457.841H736.429V453.233H733.621V451.073H738.697V457.841H741.289V460.001H733.405V457.841ZM739.255 448.427C739.255 448.667 739.207 448.895 739.111 449.111C739.027 449.315 738.907 449.495 738.751 449.651C738.595 449.795 738.409 449.915 738.193 450.011C737.989 450.095 737.773 450.137 737.545 450.137C737.305 450.137 737.083 450.095 736.879 450.011C736.675 449.915 736.495 449.795 736.339 449.651C736.183 449.495 736.057 449.315 735.961 449.111C735.877 448.895 735.835 448.667 735.835 448.427C735.835 448.187 735.877 447.965 735.961 447.761C736.057 447.545 736.183 447.365 736.339 447.221C736.495 447.065 736.675 446.945 736.879 446.861C737.083 446.765 737.305 446.717 737.545 446.717C737.773 446.717 737.989 446.765 738.193 446.861C738.409 446.945 738.595 447.065 738.751 447.221C738.907 447.365 739.027 447.545 739.111 447.761C739.207 447.965 739.255 448.187 739.255 448.427ZM744.012 451.073H746.658V447.401H748.926V451.073H752.148V453.233H748.926V457.301C748.926 457.661 749.088 457.841 749.412 457.841H751.824V460.001H748.044C747.636 460.001 747.3 459.869 747.036 459.605C746.784 459.341 746.658 459.005 746.658 458.597V453.233H744.012V451.073ZM757.284 456.275C757.296 456.539 757.356 456.785 757.464 457.013C757.584 457.229 757.74 457.421 757.932 457.589C758.136 457.745 758.364 457.871 758.616 457.967C758.88 458.051 759.156 458.093 759.444 458.093C760.008 458.093 760.44 457.997 760.74 457.805C761.04 457.601 761.256 457.361 761.388 457.085L763.332 458.165C763.224 458.393 763.074 458.633 762.882 458.885C762.69 459.125 762.438 459.347 762.126 459.551C761.826 459.755 761.454 459.923 761.01 460.055C760.578 460.187 760.068 460.253 759.48 460.253C758.808 460.253 758.196 460.145 757.644 459.929C757.092 459.713 756.612 459.401 756.204 458.993C755.808 458.585 755.496 458.087 755.268 457.499C755.052 456.911 754.944 456.245 754.944 455.501V455.393C754.944 454.709 755.058 454.085 755.286 453.521C755.526 452.957 755.85 452.477 756.258 452.081C756.666 451.685 757.14 451.379 757.68 451.163C758.232 450.935 758.82 450.821 759.444 450.821C760.212 450.821 760.872 450.959 761.424 451.235C761.976 451.499 762.432 451.841 762.792 452.261C763.152 452.669 763.416 453.125 763.584 453.629C763.752 454.121 763.836 454.601 763.836 455.069V456.275H757.284ZM759.426 452.873C758.85 452.873 758.382 453.023 758.022 453.323C757.662 453.611 757.428 453.947 757.32 454.331H761.532C761.46 453.911 761.232 453.563 760.848 453.287C760.476 453.011 760.002 452.873 759.426 452.873ZM786.041 456.725C785.837 457.781 785.351 458.633 784.583 459.281C783.827 459.929 782.813 460.253 781.541 460.253C780.881 460.253 780.263 460.151 779.687 459.947C779.123 459.743 778.631 459.449 778.211 459.065C777.791 458.681 777.461 458.207 777.221 457.643C776.981 457.079 776.861 456.437 776.861 455.717V455.501C776.861 454.781 776.981 454.133 777.221 453.557C777.461 452.981 777.791 452.489 778.211 452.081C778.643 451.673 779.141 451.361 779.705 451.145C780.281 450.929 780.893 450.821 781.541 450.821C782.789 450.821 783.797 451.145 784.565 451.793C785.345 452.441 785.837 453.293 786.041 454.349L783.809 454.925C783.737 454.397 783.509 453.941 783.125 453.557C782.741 453.173 782.201 452.981 781.505 452.981C781.181 452.981 780.875 453.041 780.587 453.161C780.299 453.281 780.047 453.455 779.831 453.683C779.615 453.899 779.441 454.169 779.309 454.493C779.189 454.805 779.129 455.159 779.129 455.555V455.663C779.129 456.059 779.189 456.413 779.309 456.725C779.441 457.025 779.615 457.277 779.831 457.481C780.047 457.685 780.299 457.841 780.587 457.949C780.875 458.045 781.181 458.093 781.505 458.093C782.201 458.093 782.729 457.919 783.089 457.571C783.461 457.223 783.701 456.755 783.809 456.167L786.041 456.725ZM797.098 455.645C797.098 456.389 796.972 457.049 796.72 457.625C796.468 458.189 796.126 458.669 795.694 459.065C795.262 459.449 794.764 459.743 794.2 459.947C793.648 460.151 793.066 460.253 792.454 460.253C791.842 460.253 791.254 460.151 790.69 459.947C790.138 459.743 789.646 459.449 789.214 459.065C788.782 458.669 788.44 458.189 788.188 457.625C787.936 457.049 787.81 456.389 787.81 455.645V455.429C787.81 454.697 787.936 454.049 788.188 453.485C788.44 452.909 788.782 452.423 789.214 452.027C789.646 451.631 790.138 451.331 790.69 451.127C791.254 450.923 791.842 450.821 792.454 450.821C793.066 450.821 793.648 450.923 794.2 451.127C794.764 451.331 795.262 451.631 795.694 452.027C796.126 452.423 796.468 452.909 796.72 453.485C796.972 454.049 797.098 454.697 797.098 455.429V455.645ZM792.454 458.093C792.778 458.093 793.084 458.039 793.372 457.931C793.66 457.823 793.912 457.667 794.128 457.463C794.344 457.259 794.512 457.013 794.632 456.725C794.764 456.425 794.83 456.089 794.83 455.717V455.357C794.83 454.985 794.764 454.655 794.632 454.367C794.512 454.067 794.344 453.815 794.128 453.611C793.912 453.407 793.66 453.251 793.372 453.143C793.084 453.035 792.778 452.981 792.454 452.981C792.13 452.981 791.824 453.035 791.536 453.143C791.248 453.251 790.996 453.407 790.78 453.611C790.564 453.815 790.39 454.067 790.258 454.367C790.138 454.655 790.078 454.985 790.078 455.357V455.717C790.078 456.089 790.138 456.425 790.258 456.725C790.39 457.013 790.564 457.259 790.78 457.463C790.996 457.667 791.248 457.823 791.536 457.931C791.824 458.039 792.13 458.093 792.454 458.093ZM799.318 457.841H802.45V449.561H799.426V447.401H804.718V457.841H807.634V460.001H799.318V457.841ZM810.339 457.841H813.471V449.561H810.447V447.401H815.739V457.841H818.655V460.001H810.339V457.841ZM827.193 458.705C826.953 459.269 826.617 459.671 826.185 459.911C825.753 460.139 825.249 460.253 824.673 460.253C824.133 460.253 823.623 460.151 823.143 459.947C822.675 459.743 822.261 459.443 821.901 459.047C821.541 458.651 821.253 458.171 821.037 457.607C820.833 457.043 820.731 456.401 820.731 455.681V455.393C820.731 454.685 820.833 454.049 821.037 453.485C821.241 452.921 821.517 452.441 821.865 452.045C822.213 451.649 822.615 451.349 823.071 451.145C823.539 450.929 824.037 450.821 824.565 450.821C825.201 450.821 825.711 450.929 826.095 451.145C826.491 451.361 826.803 451.697 827.031 452.153H827.355V451.073H829.623V457.301C829.623 457.661 829.785 457.841 830.109 457.841H830.451V460.001H828.903C828.495 460.001 828.159 459.881 827.895 459.641C827.643 459.401 827.517 459.089 827.517 458.705H827.193ZM825.177 458.093C825.837 458.093 826.365 457.877 826.761 457.445C827.157 457.001 827.355 456.401 827.355 455.645V455.429C827.355 454.673 827.157 454.079 826.761 453.647C826.365 453.203 825.837 452.981 825.177 452.981C824.517 452.981 823.989 453.203 823.593 453.647C823.197 454.079 822.999 454.673 822.999 455.429V455.645C822.999 456.401 823.197 457.001 823.593 457.445C823.989 457.877 824.517 458.093 825.177 458.093ZM834.326 460.001H832.058V447.401H834.326V452.369H834.65C834.89 451.877 835.238 451.499 835.694 451.235C836.15 450.959 836.732 450.821 837.44 450.821C837.968 450.821 838.466 450.923 838.934 451.127C839.414 451.331 839.828 451.631 840.176 452.027C840.536 452.411 840.818 452.885 841.022 453.449C841.238 454.013 841.346 454.655 841.346 455.375V455.699C841.346 456.431 841.244 457.079 841.04 457.643C840.836 458.207 840.56 458.687 840.212 459.083C839.864 459.467 839.45 459.761 838.97 459.965C838.502 460.157 837.992 460.253 837.44 460.253C837.032 460.253 836.678 460.211 836.378 460.127C836.078 460.043 835.814 459.929 835.586 459.785C835.37 459.641 835.184 459.479 835.028 459.299C834.884 459.107 834.758 458.909 834.65 458.705H834.326V460.001ZM836.702 458.093C837.41 458.093 837.98 457.877 838.412 457.445C838.856 457.001 839.078 456.401 839.078 455.645V455.429C839.078 454.673 838.856 454.079 838.412 453.647C837.98 453.203 837.41 452.981 836.702 452.981C835.994 452.981 835.418 453.209 834.974 453.665C834.542 454.109 834.326 454.697 834.326 455.429V455.645C834.326 456.377 834.542 456.971 834.974 457.427C835.418 457.871 835.994 458.093 836.702 458.093ZM852.206 455.645C852.206 456.389 852.08 457.049 851.828 457.625C851.576 458.189 851.234 458.669 850.802 459.065C850.37 459.449 849.872 459.743 849.308 459.947C848.756 460.151 848.174 460.253 847.562 460.253C846.95 460.253 846.362 460.151 845.798 459.947C845.246 459.743 844.754 459.449 844.322 459.065C843.89 458.669 843.548 458.189 843.296 457.625C843.044 457.049 842.918 456.389 842.918 455.645V455.429C842.918 454.697 843.044 454.049 843.296 453.485C843.548 452.909 843.89 452.423 844.322 452.027C844.754 451.631 845.246 451.331 845.798 451.127C846.362 450.923 846.95 450.821 847.562 450.821C848.174 450.821 848.756 450.923 849.308 451.127C849.872 451.331 850.37 451.631 850.802 452.027C851.234 452.423 851.576 452.909 851.828 453.485C852.08 454.049 852.206 454.697 852.206 455.429V455.645ZM847.562 458.093C847.886 458.093 848.192 458.039 848.48 457.931C848.768 457.823 849.02 457.667 849.236 457.463C849.452 457.259 849.62 457.013 849.74 456.725C849.872 456.425 849.938 456.089 849.938 455.717V455.357C849.938 454.985 849.872 454.655 849.74 454.367C849.62 454.067 849.452 453.815 849.236 453.611C849.02 453.407 848.768 453.251 848.48 453.143C848.192 453.035 847.886 452.981 847.562 452.981C847.238 452.981 846.932 453.035 846.644 453.143C846.356 453.251 846.104 453.407 845.888 453.611C845.672 453.815 845.498 454.067 845.366 454.367C845.246 454.655 845.186 454.985 845.186 455.357V455.717C845.186 456.089 845.246 456.425 845.366 456.725C845.498 457.013 845.672 457.259 845.888 457.463C846.104 457.667 846.356 457.823 846.644 457.931C846.932 458.039 847.238 458.093 847.562 458.093ZM854.047 451.073H857.827V452.369H858.151C858.319 451.877 858.601 451.499 858.997 451.235C859.405 450.959 859.891 450.821 860.455 450.821C861.343 450.821 862.057 451.103 862.597 451.667C863.137 452.219 863.407 453.065 863.407 454.205V454.601L861.067 454.817V454.565C861.067 454.073 860.941 453.683 860.689 453.395C860.437 453.095 860.059 452.945 859.555 452.945C859.051 452.945 858.655 453.119 858.367 453.467C858.079 453.815 857.935 454.313 857.935 454.961V457.841H859.987V460.001H853.831V457.841H855.667V453.233H854.047V451.073ZM871.279 458.705C871.039 459.269 870.703 459.671 870.271 459.911C869.839 460.139 869.335 460.253 868.759 460.253C868.219 460.253 867.709 460.151 867.229 459.947C866.761 459.743 866.347 459.443 865.987 459.047C865.627 458.651 865.339 458.171 865.123 457.607C864.919 457.043 864.817 456.401 864.817 455.681V455.393C864.817 454.685 864.919 454.049 865.123 453.485C865.327 452.921 865.603 452.441 865.951 452.045C866.299 451.649 866.701 451.349 867.157 451.145C867.625 450.929 868.123 450.821 868.651 450.821C869.287 450.821 869.797 450.929 870.181 451.145C870.577 451.361 870.889 451.697 871.117 452.153H871.441V451.073H873.709V457.301C873.709 457.661 873.871 457.841 874.195 457.841H874.537V460.001H872.989C872.581 460.001 872.245 459.881 871.981 459.641C871.729 459.401 871.603 459.089 871.603 458.705H871.279ZM869.263 458.093C869.923 458.093 870.451 457.877 870.847 457.445C871.243 457.001 871.441 456.401 871.441 455.645V455.429C871.441 454.673 871.243 454.079 870.847 453.647C870.451 453.203 869.923 452.981 869.263 452.981C868.603 452.981 868.075 453.203 867.679 453.647C867.283 454.079 867.085 454.673 867.085 455.429V455.645C867.085 456.401 867.283 457.001 867.679 457.445C868.075 457.877 868.603 458.093 869.263 458.093ZM876.27 451.073H878.916V447.401H881.184V451.073H884.406V453.233H881.184V457.301C881.184 457.661 881.346 457.841 881.67 457.841H884.082V460.001H880.302C879.894 460.001 879.558 459.869 879.294 459.605C879.042 459.341 878.916 459.005 878.916 458.597V453.233H876.27V451.073ZM896.292 455.645C896.292 456.389 896.166 457.049 895.914 457.625C895.662 458.189 895.32 458.669 894.888 459.065C894.456 459.449 893.958 459.743 893.394 459.947C892.842 460.151 892.26 460.253 891.648 460.253C891.036 460.253 890.448 460.151 889.884 459.947C889.332 459.743 888.84 459.449 888.408 459.065C887.976 458.669 887.634 458.189 887.382 457.625C887.13 457.049 887.004 456.389 887.004 455.645V455.429C887.004 454.697 887.13 454.049 887.382 453.485C887.634 452.909 887.976 452.423 888.408 452.027C888.84 451.631 889.332 451.331 889.884 451.127C890.448 450.923 891.036 450.821 891.648 450.821C892.26 450.821 892.842 450.923 893.394 451.127C893.958 451.331 894.456 451.631 894.888 452.027C895.32 452.423 895.662 452.909 895.914 453.485C896.166 454.049 896.292 454.697 896.292 455.429V455.645ZM891.648 458.093C891.972 458.093 892.278 458.039 892.566 457.931C892.854 457.823 893.106 457.667 893.322 457.463C893.538 457.259 893.706 457.013 893.826 456.725C893.958 456.425 894.024 456.089 894.024 455.717V455.357C894.024 454.985 893.958 454.655 893.826 454.367C893.706 454.067 893.538 453.815 893.322 453.611C893.106 453.407 892.854 453.251 892.566 453.143C892.278 453.035 891.972 452.981 891.648 452.981C891.324 452.981 891.018 453.035 890.73 453.143C890.442 453.251 890.19 453.407 889.974 453.611C889.758 453.815 889.584 454.067 889.452 454.367C889.332 454.655 889.272 454.985 889.272 455.357V455.717C889.272 456.089 889.332 456.425 889.452 456.725C889.584 457.013 889.758 457.259 889.974 457.463C890.19 457.667 890.442 457.823 890.73 457.931C891.018 458.039 891.324 458.093 891.648 458.093ZM898.133 451.073H901.913V452.369H902.237C902.405 451.877 902.687 451.499 903.083 451.235C903.491 450.959 903.977 450.821 904.541 450.821C905.429 450.821 906.143 451.103 906.683 451.667C907.223 452.219 907.493 453.065 907.493 454.205V454.601L905.153 454.817V454.565C905.153 454.073 905.027 453.683 904.775 453.395C904.523 453.095 904.145 452.945 903.641 452.945C903.137 452.945 902.741 453.119 902.453 453.467C902.165 453.815 902.021 454.313 902.021 454.961V457.841H904.073V460.001H897.917V457.841H899.753V453.233H898.133V451.073ZM912.431 453.593C912.431 453.881 912.581 454.091 912.881 454.223C913.181 454.343 913.727 454.445 914.519 454.529C915.431 454.625 916.175 454.901 916.751 455.357C917.327 455.801 917.615 456.425 917.615 457.229V457.337C917.615 458.225 917.291 458.933 916.643 459.461C915.995 459.989 915.083 460.253 913.907 460.253C913.211 460.253 912.617 460.163 912.125 459.983C911.633 459.803 911.225 459.581 910.901 459.317C910.577 459.041 910.325 458.741 910.145 458.417C909.977 458.081 909.863 457.757 909.803 457.445L911.891 456.761C911.987 457.145 912.185 457.481 912.485 457.769C912.797 458.057 913.271 458.201 913.907 458.201C914.471 458.201 914.855 458.117 915.059 457.949C915.275 457.769 915.383 457.577 915.383 457.373C915.383 457.253 915.353 457.145 915.293 457.049C915.245 456.941 915.149 456.845 915.005 456.761C914.861 456.665 914.663 456.587 914.411 456.527C914.171 456.467 913.865 456.419 913.493 456.383C912.485 456.299 911.681 456.041 911.081 455.609C910.493 455.165 910.199 454.517 910.199 453.665V453.557C910.199 453.113 910.295 452.723 910.487 452.387C910.679 452.051 910.931 451.769 911.243 451.541C911.555 451.301 911.915 451.121 912.323 451.001C912.731 450.881 913.151 450.821 913.583 450.821C914.147 450.821 914.633 450.893 915.041 451.037C915.461 451.169 915.815 451.349 916.103 451.577C916.391 451.793 916.625 452.039 916.805 452.315C916.985 452.579 917.123 452.837 917.219 453.089L915.167 453.917C915.059 453.593 914.873 453.341 914.609 453.161C914.345 452.969 914.003 452.873 913.583 452.873C913.199 452.873 912.911 452.945 912.719 453.089C912.527 453.221 912.431 453.389 912.431 453.593ZM926.422 458.543C926.422 458.783 926.374 459.011 926.278 459.227C926.194 459.431 926.074 459.611 925.918 459.767C925.762 459.911 925.576 460.025 925.36 460.109C925.156 460.205 924.94 460.253 924.712 460.253C924.472 460.253 924.25 460.205 924.046 460.109C923.842 460.025 923.662 459.911 923.506 459.767C923.35 459.611 923.224 459.431 923.128 459.227C923.044 459.011 923.002 458.783 923.002 458.543C923.002 458.303 923.044 458.081 923.128 457.877C923.224 457.661 923.35 457.481 923.506 457.337C923.662 457.181 923.842 457.061 924.046 456.977C924.25 456.881 924.472 456.833 924.712 456.833C924.94 456.833 925.156 456.881 925.36 456.977C925.576 457.061 925.762 457.181 925.918 457.337C926.074 457.481 926.194 457.661 926.278 457.877C926.374 458.081 926.422 458.303 926.422 458.543Z" fill="white"/>
<defs>
<filter id="filter0_d" x="51.5" y="57" width="868" height="588" filterUnits="userSpaceOnUse" color-interpolation-filters="sRGB">
<feFlood flood-opacity="0" result="BackgroundImageFix"/>
<feColorMatrix in="SourceAlpha" type="matrix" values="0 0 0 0 0 0 0 0 0 0 0 0 0 0 0 0 0 0 127 0"/>
<feOffset dy="10"/>
<feGaussianBlur stdDeviation="12"/>
<feColorMatrix type="matrix" values="0 0 0 0 0 0 0 0 0 0 0 0 0 0 0 0 0 0 0.1 0"/>
<feBlend mode="normal" in2="BackgroundImageFix" result="effect1_dropShadow"/>
<feBlend mode="normal" in="SourceGraphic" in2="effect1_dropShadow" result="shape"/>
</filter>
<filter id="filter1_d" x="0.5" y="276" width="528" height="107" filterUnits="userSpaceOnUse" color-interpolation-filters="sRGB">
<feFlood flood-opacity="0" result="BackgroundImageFix"/>
<feColorMatrix in="SourceAlpha" type="matrix" values="0 0 0 0 0 0 0 0 0 0 0 0 0 0 0 0 0 0 127 0"/>
<feOffset dy="6"/>
<feGaussianBlur stdDeviation="6.5"/>
<feColorMatrix type="matrix" values="0 0 0 0 0 0 0 0 0 0 0 0 0 0 0 0 0 0 0.12 0"/>
<feBlend mode="normal" in2="BackgroundImageFix" result="effect1_dropShadow"/>
<feBlend mode="normal" in="SourceGraphic" in2="effect1_dropShadow" result="shape"/>
</filter>
<filter id="filter2_d" x="634.5" y="136" width="199" height="93.2842" filterUnits="userSpaceOnUse" color-interpolation-filters="sRGB">
<feFlood flood-opacity="0" result="BackgroundImageFix"/>
<feColorMatrix in="SourceAlpha" type="matrix" values="0 0 0 0 0 0 0 0 0 0 0 0 0 0 0 0 0 0 127 0"/>
<feOffset dy="6"/>
<feGaussianBlur stdDeviation="6.5"/>
<feColorMatrix type="matrix" values="0 0 0 0 0 0 0 0 0 0 0 0 0 0 0 0 0 0 0.12 0"/>
<feBlend mode="normal" in2="BackgroundImageFix" result="effect1_dropShadow"/>
<feBlend mode="normal" in="SourceGraphic" in2="effect1_dropShadow" result="shape"/>
</filter>
<filter id="filter3_d" x="671.5" y="408" width="287" height="93.0008" filterUnits="userSpaceOnUse" color-interpolation-filters="sRGB">
<feFlood flood-opacity="0" result="BackgroundImageFix"/>
<feColorMatrix in="SourceAlpha" type="matrix" values="0 0 0 0 0 0 0 0 0 0 0 0 0 0 0 0 0 0 127 0"/>
<feOffset dy="6"/>
<feGaussianBlur stdDeviation="6.5"/>
<feColorMatrix type="matrix" values="0 0 0 0 0 0 0 0 0 0 0 0 0 0 0 0 0 0 0.12 0"/>
<feBlend mode="normal" in2="BackgroundImageFix" result="effect1_dropShadow"/>
<feBlend mode="normal" in="SourceGraphic" in2="effect1_dropShadow" result="shape"/>
</filter>
</defs>
</svg>
