<svg fill="none" height="165" viewBox="0 0 152 165" width="152" xmlns="http://www.w3.org/2000/svg" xmlns:xlink="http://www.w3.org/1999/xlink"><clipPath id="a"><path d="m0 10.5522h140.226v154.198h-140.226z" transform="matrix(.99716463 -.07525093 .07525093 .99716463 -.794063 .029919)"/></clipPath><g clip-path="url(#a)"><path d="m132.476 17.2446c5.122-.3865 9.504 4.4339 9.299 9.9095-1.587 34.9413-25.622 64.571-57.2675 67.0622-31.6458 2.4912-61.2504-22.5756-68.3707-56.8597-1.119-5.2727 3.5371-10.4661 8.5489-10.9474 53.9388-4.6886 53.9311-4.791 107.7903-9.1646z" fill="#58d1bd"/><path d="m25.8644 72.062c-8.8792-11.1775-15.1878-23.7852-18.70544-37.6338-.87748-3.4365-5.98589-1.5057-5.10842 1.9309 3.54853 14.2583 10.21086 27.4575 19.31816 38.9268 2.1628 2.7214 6.6662-.4 4.4957-3.2239z" fill="#58d1bd"/><g fill="#273339"><path d="m114.681 91.3212c-3.377-7.884-6.754-15.7679-10.233-23.6441-2.725-6.0787-5.0074-13.118-9.7988-17.9075-8.8039-8.8137-22.5829-4.3741-29.0965 4.8743-3.8212 5.3365-5.8159 11.6683-7.2906 18.064-1.9426 8.3883-3.4676 16.8482-4.7878 25.2926-2.5147 17.1885-3.6822 34.4815-3.7152 51.7915.2668.804.1237 1.639-.2242 2.489.0232.308-.056.623-.143.835.0077.103.1179.198.1256.3.1025-.008.1102.095.2126.087.2049-.016.4175.071.6301.158 27.1868 2.585 56.1658 2.973 79.5818-13.011.007.103.118.197.125.3.773-.677 1.444-1.345 2.217-2.022.284-.33.671-.669.955-.999-5.816-15.633-12.136-31.124-18.558-46.6078zm-36.909-41.3082c8.5217-3.1156 13.9355 1.73 17.7237 8.2435-9.3277 4.7218-19.6122 6.3221-29.9314 4.7313 2.4508-5.7481 6.1928-10.7695 12.2077-12.9748zm-19.9546 46.8356c1.3047-8.6493 2.8065-17.4165 5.0486-25.9305.3093-1.3626.721-2.733 1.2351-4.111 11.477 1.9154 22.8806.1277 33.312-4.9865.1256.2996.2512.5992.3768.8988 3.8331 8.4676 7.4601 16.9508 11.0881 25.4339 5.01 11.7785 9.823 23.6747 14.635 35.5717-.417-.072-1.032-.025-1.529.218-4.345 2.491-8.925 4.589-13.522 6.481-.007-.103-.023-.308-.133-.402-1.341-4.123-3.896-7.948-8.212-9.168-5.5842-1.639-8.3076 1.864-12.6448 4.457-4.834 2.838-9.5229-1.96-14.4516.988-4.3372 2.594-5.3926 7.721-6.0691 12.408.0155.205.0232.308.0387.513-4.3179.119-8.6513.034-12.8976-.263.375-14.143 1.5851-28.142 3.7248-42.1084zm46.8376 34.9954c-.402.134-.702.259-1.104.393.095-.111.284-.331.379-.441.189-.22.284-.331.371-.543.008.102.008.102.016.205.212.087.33.284.338.386zm23.559 5.022c-21.824 15.246-48.8172 15.222-74.3264 13.026.0348-2.269-.0328-4.53.1044-6.807 24.5486 1.753 48.769-3.577 70.312-15.711.197-.118.292-.228.489-.346 1.271 3.201 2.551 6.504 3.823 9.705-.205.015-.308.023-.402.133z"/><path d="m44.9967 157.672c-1.6468.021-.9084-14.767-.9141-16.208.0038-2.679-4.0937-2.37-4.0976.309-.0387 4.948-.5664 10.242.1043 15.033.429 2.955 2.128 4.991 5.2166 4.964 2.6789.004 2.3696-4.094-.3092-4.098z"/><path d="m138.865 137.401c-1.15-.222-2.12.573-2.452 1.628-.578 1.898-1.794 3.535-3.363 4.581-2.154 1.501.158 4.83 2.319 3.43 2.547-1.737 4.316-4.24 5.124-7.186.325-1.158-.58-2.223-1.628-2.453z"/><path d="m79.3108 4.87616c-7.0741 4.55171-13.4485 10.18384-18.7213 16.76314-3.481 4.3835-7.9574 10.5936-6.5794 16.5679 2.9204 12.7604 22.9522-11.2101 25.5402-13.7749 1.9251-1.7936-1.2698-4.5402-3.0847-2.6518-2.9746 2.903-5.611 6.1926-8.5779 9.1981-1.7202 1.7782-3.5505 3.4617-5.609 4.8533-.4967.2435-2.7446 1.8554-3.3824 1.5945-1.5984-.7036-.4426-4.4996 0-5.4602 3.7884-9.8669 14.185-18.1721 22.8285-23.76946 2.1609-1.39934-.1584-4.83008-2.414-3.32058z"/><path d="m89.9701 16.4345c-.6919-.978-1.8342-1.0978-2.8199-.5083-1.7821.9586-3.2027 2.6112-3.7884 4.4067-.3324 1.0553-.1372 2.2769.9258 2.7118.9606.4426 2.3793.1295 2.7118-.9258.5064-1.4806 1.0746-2.1416 2.4624-2.8644.9934-.4871 1.0901-1.9367.5083-2.82z"/></g></g></svg>