<svg fill="none" height="66" viewBox="0 0 313 66" width="313" xmlns="http://www.w3.org/2000/svg"><circle cx="33.1948" cy="32.5" fill="#273339" r="32.5"/><path d="m42.7114 40.2198v4.7802h-18.6655v-5.2355c0-1.391.2024-2.5797.607-3.5661.43-.9864 1.0244-1.8211 1.7831-2.5039.7841-.6829 1.7199-1.2393 2.8074-1.6693 1.0876-.4553 2.3142-.8347 3.68-1.1382 1.0117-.2276 1.8337-.4805 2.466-.7587.6576-.3035 1.1761-.6323 1.5555-.9864.3793-.3794.6323-.7841.7587-1.214.1518-.4553.2276-.9611.2276-1.5175 0-1.0623-.392-1.9475-1.176-2.6557-.7588-.7082-1.8211-1.0623-3.1868-1.0623-1.4417 0-2.5925.4426-3.4524 1.3279-.8599.8599-1.2899 2.0613-1.2899 3.6041v1.6692h-5.0078v-2.1245c0-1.2393.215-2.4154.6449-3.5282.4553-1.1382 1.0876-2.1246 1.8969-2.9592.8347-.8599 1.8464-1.5302 3.0351-2.0107 1.1887-.5058 2.5292-.7588 4.0214-.7588 1.5934 0 2.9845.2403 4.1732.7209 1.1887.4552 2.1751 1.0622 2.9592 1.821.8093.7587 1.4037 1.644 1.7831 2.6556.4046.9864.607 2.0108.607 3.073v.4553c0 2.2257-.6323 4.072-1.8969 5.5389-1.2393 1.467-3.2754 2.5292-6.1081 3.1868-1.1887.2782-2.1751.5691-2.9591.8726-.7588.2782-1.3532.5944-1.7831.9485-.43.3541-.7335.7461-.9105 1.176-.1518.4047-.2277.8726-.2277 1.4037v.4553z" fill="#fff"/><rect fill="#f0eacf" height="66" rx="33" width="148" x="82.6948"/><rect fill="#eeb27b" height="65" rx="32.5" width="66" x="246.695"/></svg>