<svg fill="none" height="211" viewBox="0 0 178 211" width="178" xmlns="http://www.w3.org/2000/svg"><g fill="#ffd74a"><path d="m154.793 128.085c5.674.625 9.474 6.786 8.131 12.725-8.878 37.842-41.189 65.292-76.2646 61.542-35.0759-3.749-62.3001-37.069-63.0676-75.973-.1443-5.988 6.0035-10.709 11.5762-10.21 59.8882 5.794 59.9007 5.681 119.625 11.916z"/><path d="m27.1336 166.163c-7.4133-14.024-11.7263-29.086-12.737-44.932-.2559-3.933-6.23053-2.868-5.97472 1.065.96072 16.3 5.53912 32.079 13.14192 46.469 1.806 3.415 7.3633.926 5.5698-2.602z"/><path d="m78.5272 39.5167c-3.8129-6.0478-6.7815-12.4619-8.7798-19.3434-.3414-1.0713-1.1992-1.6252-1.9935-1.7127-.9732-2.6339-4.9678-.777-4.1206 1.9579.6827 2.1426-.4116 4.7784-2.3522 5.7132-2.306 1.1241-4.9419.0298-6.318-2.0743-1.2876-1.8646-3.8456-.5385-3.9321 1.2896-.151.3279-.3145.7693-.2635 1.3492.5222 5.6852-6.9517 7.8479-9.6164 2.8455-1.2377-2.3185-4.8294-.9914-4.3861 1.2396-.1509.3279-.3144.7693-.2634 1.3491.8395 8.0173 2.8638 15.7056 6.0728 23.065 1.2001 2.6589 5.3082.8145 4.2216-1.8319-2.3753-5.5449-4.0322-11.3551-5.1093-17.2163 2.0685 1.0318 4.4515 1.2944 6.821.6366 3.3147-.8982 5.5563-3.5225 6.4737-6.6373 2.7118 1.4473 6.0276 1.5829 8.8375.0548 1.5877-.8587 2.7589-2.1079 3.4888-3.5206 2.0349 5.5074 4.6621 10.8502 7.8942 15.9152 1.3511 2.331 4.8909-.6097 3.3253-3.0792z"/><path d="m66.0048 48.9331c-4.0957 1.731-7.7874 3.9658-11.2012 6.8056-2.2801 1.931.5472 5.4583 2.8272 3.5273 3.0359-2.5368 6.4757-4.5698 10.2184-6.2248 2.7599-1.0741.928-5.2957-1.8444-4.1081z"/><path d="m59.7224 44.451c-.4674-.9703-1.8675-1.8137-2.9763-1.1319s-2.205 1.2502-3.3138 1.932c-.9828.5808-1.7002 1.88-1.1319 2.9762.4674.9703 1.8676 1.8137 2.9763 1.1319 1.1088-.6818 2.2051-1.2501 3.3138-1.932.9828-.5808 1.6877-1.7665 1.1319-2.9762z"/><path d="m36.4929 22.8266c-.0769-1.3867-.9982-2.407-2.1079-2.7589-.1645-.5924-.4549-1.0838-.8713-1.4742-1.0722-.6924-2.3579-.4895-3.1513.4568-2.0906 2.2964-.0952 6.0766 2.7167 6.6161 1.6896.3009 3.4407-.9992 3.4138-2.8398z"/><path d="m49.6452 12.9053c-.5423-.2894-1.2482-.1375-1.853.1404-.6684-.1884-1.3742-.0365-1.9916.3549-3.2503 2.3983-.7741 8.0691 3.0956 7.3469 3.8696-.7222 4.1542-6.4334.749-7.8422z"/><path d="m63.3044 5.68136c-.8828-.32695-1.9416-.09904-2.5964.63277-1.5627.6318-2.4436 2.37238-2.2781 3.99847.2413 1.9791 2.0704 3.0994 4.0494 2.858 1.7521-.2664 3.1629-1.604 3.3504-3.30611.3135-1.80307-.7597-3.52922-2.5253-4.18313z"/></g><path d="m102.552 116.472c-2.505-9.579-3.6234-19.2347-3.6955-29.005-.0279-2.8743-4.5543-3.4878-4.539-.5.0222 10.2242 1.0906 20.334 3.6717 30.266 1.1136 4.487 2.6808 9.024 3.2018 13.675.243 3.013.107 6.329-1.126 9.179-.992 3.796-3.0595 3.798-6.4416.094-.2154-1.172-.3174-2.332-.4193-3.491-.2548-2.9-4.8053-2.253-4.563.76.5087 4.765 2.3426 11.054 8.3182 11.024 4.8287-.043 7.2937-5.743 8.1977-9.778 1.872-7.604-.644-15.002-2.605-22.224z" fill="#273339"/><path d="m102.85 179.443c-3.0527-2.518-7.4667-4.153-.775-6.517 6.088-2.086 14.086-10.048 8.759-16.952-2.007-2.633-4.679-2.353-7.262-.8-6.0106 3.473-9.886 11.545-17.9561 9.737-2.9128-.666-3.2994 3.886-.5001 4.539 3.4802.728 6.644.158 9.8194-1.56 1.4742-.871 2.8474-1.868 4.1071-2.878 1.1337-.909 4.3447-5.034 5.7317-5.111 5.42-.207 1.077 5.861-.082 6.997-2.154 1.83-5.0159 1.744-7.4479 2.969-1.8271.947-3.7293 2.575-4.0803 4.719-.4644 2.131.4703 4.071 2.0349 5.507 1.4636 1.31 3.3552 1.863 4.8313 3.059.808 1.008 1.616 2.016 2.423 3.024 1.881 2.734.899 4.348-3.0711 4.944-1.2992-.717-2.3993-4.284-3.5225-5.556-.8203-.894-1.6406-1.789-2.7129-2.481-2.7753-1.914-5.814-2.478-9.1673-2.273-2.8868.141-2.2396 4.692.7607 4.563 8.3076-.348 8.0509 8.237 14.1554 11.207 2.8377 1.346 6.0017.776 7.7767-1.785 2.166-2.977 1.481-7.188-.136-10.237-.682-2.142-2.096-3.906-3.686-5.115z" fill="#273339"/><path d="m149.579 186.888c.101.126.101.126.201.252.543.29 1.199.591 1.741.881.114.012.114.012.227.025.227.025.454.05.693-.039.693-1.072 1.385-2.144 2.191-3.204.126-.101.138-.214.264-.315.693-1.072 1.373-2.031 2.065-3.103 2.418-3.18 5.312-8.603 2.662-11.652-.82-.894-2.044-1.258-3.216-1.043-.328-.151-.681-.075-1.034.001s-.58.051-.932.127c-2.017.582-3.226 2.171-4.22 3.899-3.507-2.568-8.892-4.769-10.753.653-1.949 5.184 6.351 11.152 10.111 13.518z" fill="#ff001a"/></svg>